<?xml version="1.0" standalone="no"?>
<!DOCTYPE svg PUBLIC "-//W3C//DTD SVG 1.1//EN" "http://www.w3.org/Graphics/SVG/1.1/DTD/svg11.dtd" >
<svg xmlns="http://www.w3.org/2000/svg" xmlns:xlink="http://www.w3.org/1999/xlink" version="1.1">
<metadata></metadata>
<defs>
<font id="freshscriptregular" horiz-adv-x="1011" >
<font-face units-per-em="2048" ascent="1638" descent="-410" />
<missing-glyph horiz-adv-x="524" />
<glyph horiz-adv-x="0" />
<glyph horiz-adv-x="682" />
<glyph unicode=" "  horiz-adv-x="524" />
<glyph unicode="&#x09;" horiz-adv-x="524" />
<glyph unicode="&#xa0;" horiz-adv-x="524" />
<glyph unicode="!" horiz-adv-x="587" d="M139 0q0 29 28 74t42 57t37 12q33 0 62.5 -33.5t29.5 -68.5q0 -23 -14.5 -35t-27.5 -77.5t-38 -65.5q-23 0 -51.5 28.5t-48 51t-19.5 57.5zM262 358q0 -40 25 -71q49 -66 80 -66q29 0 37 29t31.5 150.5t132 335.5t160.5 316.5t73.5 113t21.5 28.5q0 20 -14 53t-33.5 56.5 t-42.5 23.5q-33 0 -67.5 -91t-108.5 -230.5t-143.5 -271.5t-103.5 -213t-41 -108.5t-7 -54.5z" />
<glyph unicode="&#x22;" horiz-adv-x="677" d="M381 969h82l104 360h-112zM625 969h80l112 360h-119z" />
<glyph unicode="#" horiz-adv-x="829" d="M143 911l144 11l-80 -160h29l104 164l162 14l-105 -180h29l106 180h160l25 37h-160l96 160h152l24 34h-155l102 177h-55l-90 -177h-152l105 177l-60 4l-80 -181h-157l-66 -71l191 22l-76 -145h-158zM367 977h161l72 145h-137z" />
<glyph unicode="$" d="M0 55q6 -51 91 -73.5t95 -63.5q-4 -10 -7 -26.5t-3 -28.5q0 -23 12.5 -33t20.5 -10q39 0 48 53t49 57t59 7q20 0 20 -27q-4 -35 -4 -49q0 -27 14 -31q35 -12 53.5 33t32.5 94q246 55 412 203.5t177 271.5t13 143.5t2 38.5q0 127 -47 197t-127 96l140 283q53 0 72.5 -11.5 t19.5 -33.5q0 -8 -7.5 -30.5t-7.5 -33.5q0 -14 25 -14q20 0 34.5 28.5t14.5 69.5q0 43 -17.5 76t-60.5 47q6 16 13.5 38t9.5 32t14.5 36.5t-2.5 26.5q-59 0 -123 -131l-43 2l-47 -4q8 23 44 63t36 46q0 4 -6 6t-25 -2q-33 -6 -59.5 -45t-48.5 -80q-188 -63 -316.5 -142 t-128.5 -221q0 -37 14.5 -87t43 -70.5t63.5 -20.5h25q-41 -88 -92.5 -193.5t-144.5 -292t-103 -186.5q-53 -18 -101 -18q-27 0 -42 2t-47.5 27.5t-41.5 25.5q-10 0 -12 -10zM371 96l299 639h96l-287 -616zM530 915q8 53 123 125q60 22 119 47l-102 -186q-8 -2 -43 -9t-49 -7 q-49 0 -48 30zM569 160l254 561q61 0 115 -18.5t72 -55.5q20 -35 20 -74q0 -139 -217 -287.5t-244 -125.5zM750 907l112 226q31 20 60 26q27 4 53 8l-127 -258l-47 2z" />
<glyph unicode="%" d="M53 -322q47 45 94 91q115 172 269.5 466.5t306 481t296 305.5t174.5 168t30 88q0 33 -19.5 52.5t-50.5 19.5q-27 0 -50.5 -16.5t-34.5 -39t-133 -68.5t-181.5 -79t-207 -190.5t-171.5 -157.5q-14 0 -15 32v17q6 55 29 84t100.5 89t137 86.5t88.5 51.5q18 16 18 23 q-70 -14 -139 -29q-143 -57 -209 -131t-112 -135.5t-46 -108.5q0 -37 41 -55q35 -12 66 -12q76 0 216 133t217 186t130 86t64 33q-43 -63 -87 -125q-125 -143 -268 -310t-348 -537t-205 -499zM377 35q0 57 61.5 131t96 118t133.5 103q18 4 39 10q-8 -20 -9 -39q1 -20 15 -18 q29 8 36 -4t23 -47t16 -60q0 -57 -60 -117.5t-104 -104.5t-80 -69.5t-65 -25.5q-20 0 -36.5 12.5t-41 43t-24.5 67.5zM444 39q0 -18 25 -19q33 0 48 13.5t52 62.5q27 27 46.5 48.5t19.5 35.5q0 10 -9.5 18.5t-11.5 36t-6 27.5q-10 0 -53 -57q-45 -55 -78 -99.5t-33 -66.5z " />
<glyph unicode="&#x26;" horiz-adv-x="745" d="M66 397q0 -70 54 -111.5t142 -41.5q63 0 129 24.5t128.5 73.5t78.5 100q10 61 14 97q-6 -2 -10 -4q-57 -117 -130 -164t-169 -47q-57 0 -91 19t-34 65q6 70 54.5 146.5t115 135t138 105.5t98.5 43q18 0 41.5 19.5t31.5 45.5q10 35 -26 35q-35 -4 -47 -4q-14 -2 -33 -10.5 t-62 -34t-58 -27.5t-25 -2q14 41 46.5 87t80 93t100.5 79t88 32q23 0 29 -18q10 -23 -7.5 -45.5t-27.5 -22.5q-23 0 -23 -37q0 -14 9.5 -23.5t17.5 -9.5q12 0 23.5 17.5t19.5 38t14 42t6 42.5q0 35 -24.5 53t-61.5 18q-31 0 -67.5 -16t-106 -64.5t-142.5 -137.5t-73 -140 q0 -27 21 -35l47 -22q-82 -53 -168 -121t-113.5 -144.5t-27.5 -128.5zM113 23q0 10 24.5 43.5t26.5 35.5q16 51 26.5 71t30.5 20q18 0 19 -19q0 -16 -15.5 -45t-37 -63.5t-36 -52t-30.5 -7.5q-8 6 -8 17zM707 1282q0 14 11 28.5t42 49.5q18 20 29.5 30.5t23.5 2.5 q14 -12 -1 -34t-26 -34q-27 -47 -41 -59.5t-28 -3.5q-10 8 -10 20z" />
<glyph unicode="'" horiz-adv-x="405" d="M424 1004h72l98 315h-100z" />
<glyph unicode="(" horiz-adv-x="509" d="M147 215q0 322 174.5 628t485.5 523q37 27 63.5 41t36.5 14q-4 -18 -8 -37q-29 -39 -145.5 -122.5t-318.5 -454.5t-202 -723q0 -131 32 -243.5t32 -141.5q-6 0 -12 -2q-12 16 -49 94t-63 189.5t-26 234.5z" />
<glyph unicode=")" horiz-adv-x="688" d="M72 -276q0 -10 15 -7.5t134 68t235.5 225.5t198.5 422t82 506q0 156 -32.5 270.5t-75.5 157.5t-54 43q-14 0 -14 -20q0 -18 26.5 -63.5t45 -127.5t18.5 -174q0 -129 -29.5 -266t-81 -296t-118 -276.5t-154.5 -227.5t-172 -198q-25 -25 -24 -36z" />
<glyph unicode="*" horiz-adv-x="1028" d="M483 946q0 -23 23 -22q37 0 98.5 42t116.5 85q-47 -55 -94 -117t-47 -94q0 -18 20 -19q47 0 79 76t56 154q16 -41 38 -80t52 -39q10 0 21.5 10t11.5 27q0 35 -40 62.5t-62 39.5q82 23 162.5 56.5t80.5 82.5q0 18 -16 19q-37 0 -102.5 -46t-124.5 -96q49 57 98 121t49 97 q0 14 -16 14q-45 0 -81 -76t-65 -156q-16 43 -37.5 86.5t-50.5 43.5q-10 -1 -18 -9t-8 -22q0 -29 30.5 -59.5t65.5 -59.5q-80 -14 -160 -40t-80 -81z" />
<glyph unicode="+" d="M233 539l89 153h276l178 312h105l-179 -312h287l-92 -153h-285l-159 -281h-107l162 281h-275z" />
<glyph unicode="," horiz-adv-x="485" d="M143 -141q0 18 14.5 41.5t22 38t21.5 14.5q-14 14 -15 90q0 27 3.5 40t14.5 31.5t38.5 31t52.5 12.5t52.5 -11.5t27.5 -48.5q0 -51 -66.5 -130t-89 -105.5t-53.5 -26.5q-23 0 -23 23z" />
<glyph unicode="-" horiz-adv-x="798" d="M256 399q0 14 29 33t47 19q92 0 137 18t76 18q84 0 118.5 -9t34.5 -27q0 -23 -51 -49.5t-72 -20.5q-55 16 -86 16q-23 0 -51 -15t-63 -15q-68 0 -93.5 8t-25.5 24z" />
<glyph unicode="." horiz-adv-x="485" d="M186 123q0 45 33 76q16 12 35 12q51 0 74 -47q18 -31 18 -68q0 -41 -22.5 -60.5t-42.5 -19.5q-55 0 -78 47q-16 29 -17 60z" />
<glyph unicode="/" horiz-adv-x="780" d="M0 -297q37 49 74 96q96 164 205.5 388.5t159.5 365.5t95 269t115 259q100 186 101 242q-20 -12 -41 -23q-43 -59 -130 -243.5t-139.5 -368.5t-246 -536.5t-193.5 -448.5z" />
<glyph unicode="0" d="M94 266q0 -117 49 -213q33 -63 79 -92t100 -29q121 0 269 127t270 286t195.5 306.5t73.5 280.5q0 74 -19 135t-77.5 142t-156.5 81q-117 0 -251 -111.5t-260 -265t-199 -326.5t-73 -321zM176 129q0 123 111.5 387t221 393t236.5 203t199 74q39 0 48 -37t9 -86 q0 -121 -59 -259t-158.5 -288.5t-282 -300t-272.5 -149.5q-37 -1 -49 32q-4 16 -4 31z" />
<glyph unicode="1" d="M406 268q0 170 118.5 383t223.5 400q-16 2 -33 4q-63 -20 -127 -41q6 20 14 43q45 47 213 184q35 33 66.5 59.5t56.5 26.5q10 0 27 -6q66 -35 65 -74q0 -23 -20.5 -53.5t-103.5 -146t-207 -433t-124 -485.5q6 -49 7 -84q0 -102 -39 -102q-33 0 -76 81t-57 177 q-2 16 -3 31.5t-1 35.5z" />
<glyph unicode="2" horiz-adv-x="997" d="M20 137q0 -66 27 -109.5t82 -43.5q8 0 83 17t221.5 28.5t328.5 11.5q18 0 52 -34t46 -34q25 0 33 50.5t11 69t3 38.5q0 55 -54 71.5t-146 16.5q-141 0 -258 -20.5t-230 -42.5q-18 0 -18 12t61.5 107.5t196.5 236.5t276.5 260t251 199t124.5 103.5t15 51.5q0 23 -15 66 t-24.5 88t-69 70.5t-155.5 25.5q-47 0 -95 -2t-95 -4q-12 0 -44 7t-46 7q-20 0 -75.5 -27.5t-55.5 -115.5q0 -18 8 -42.5t39.5 -33t85.5 -8.5q41 0 77.5 49t157.5 49q113 0 163 -15t50 -42q0 -31 -55 -69.5t-185 -104.5t-370 -298t-321 -375.5t-81 -213.5z" />
<glyph unicode="3" d="M25 98q0 43 19 57.5t56 14.5h43q233 0 516 140.5t283 260.5q0 16 -9 54.5t-60.5 69t-122.5 30.5q-57 0 -95.5 -11.5t-65 -31.5t-44.5 -20q-47 0 -91 39.5t-44 89.5q0 47 55 81q20 10 67.5 12.5t121 42.5t216 147.5t142.5 156.5q0 27 -51 26q-72 0 -155 9.5t-97 9.5 q-39 0 -62.5 -5t-53.5 -15.5t-57.5 -32t-48.5 -21.5q-31 0 -56 19.5t-25 50.5q0 63 20 87.5t53 18.5q57 -10 141.5 -14t180.5 -4l205 4q14 0 38.5 6t32.5 6q20 0 36.5 -21.5t28 -65.5t11.5 -68q0 -37 -23 -56q-35 -20 -90 -56t-149 -118t-94 -129q0 -31 57 -48t101 -97 t44 -176q0 -119 -110.5 -236t-311 -223.5t-315.5 -118.5t-132 -13t-26 -3q-25 0 -43 19.5t-27 61.5t-9 70z" />
<glyph unicode="4" d="M63 670q0 29 138.5 136t201 193t144.5 161t102 102q37 53 58 53q16 0 16 -45q0 -31 -32 -99.5t-203 -271.5t-156 -217q39 -39 83 -56.5t97 -17.5q41 0 98 10q94 154 176 282t137.5 256t90.5 214q12 -10 39.5 -37.5t27.5 -79.5q0 -27 -18.5 -66.5t-78.5 -139t-95 -161 t-77 -153.5t-34 -100q18 -18 43 -19q16 0 61.5 21.5t67.5 21.5q18 0 30.5 -5t32 -22.5t29 -29.5t9.5 -27q0 -20 -22.5 -39.5t-82.5 -46.5q-53 -20 -121.5 -25t-128.5 -7q-92 -168 -121.5 -315.5t-61.5 -189.5t-47 -64.5t-40 -28.5q-43 -12 -57.5 31.5t-14.5 121.5v60 q0 78 96.5 223t96.5 170t-35 24q-57 0 -129 36t-102 42q-25 4 -62 -19.5t-51 -23.5q-35 0 -70 57.5t-35 90.5z" />
<glyph unicode="5" d="M-6 57q0 20 16 21q27 0 61.5 -24.5t80.5 -24.5q164 0 410.5 161.5t298.5 292.5t52 170q0 49 -31.5 73t-86.5 24q-88 0 -207 -52.5t-174 -109.5q-14 -16 -58.5 34t-44.5 117q0 23 54.5 62t148.5 182l160 274q31 0 56.5 -2t49.5 -4q104 0 246.5 44.5t214.5 56.5q8 2 15.5 2 h9.5q25 0 32 -10.5t7 -30.5v-21q0 -84 -2.5 -107.5t-12.5 -23.5q-2 0 -18.5 10.5t-30.5 8.5q-123 -25 -283.5 -72t-214.5 -47q-39 0 -75 18q-10 4 -58.5 -72.5t-77.5 -140.5q14 -2 31 -2q123 20 176 21q92 0 157 -37t79 -121t14 -141q0 -133 -63 -242 q-76 -100 -136.5 -192.5t-253 -182.5t-348.5 -90q-66 0 -96.5 15.5t-64 73t-33.5 89.5z" />
<glyph unicode="6" d="M8 184q0 70 26.5 141.5t126 235.5t264 335t443.5 392q45 49 70 69.5t51 20.5q37 0 63.5 -32.5t26.5 -75.5q0 -14 -7 -36t-47 -34t-89 -26q-166 -100 -328 -273.5t-223 -296.5q49 20 143.5 62.5t184.5 42.5q66 0 113.5 -31t67 -96.5t19.5 -108.5q0 -121 -86 -222 t-204.5 -194.5t-191.5 -130.5t-138 -37q-111 0 -198 93.5t-87 201.5zM98 47q0 -19 31 -27q25 -4 41 -4q156 0 382 188.5t235.5 253t9.5 83.5q0 16 -9.5 17t-30 4t-57.5 3q-180 0 -351 -128t-210 -252t-41 -138z" />
<glyph unicode="7" d="M96 119q0 -29 10.5 -51.5t49.5 -79t57 -56.5q10 0 12 14.5t2 45.5q0 29 1 61.5t59.5 164.5t268.5 381t365.5 355.5t155.5 194.5q0 33 -11 79t-45 75.5t-81 29.5q-14 2 -32.5 2h-26.5q-51 0 -168 -13t-160 -13q-57 0 -94 5t-90 21q-23 6 -43 6q-33 0 -57.5 -20.5 t-28.5 -67.5q0 -70 5 -95t36.5 -42.5t54.5 -17.5q31 0 66.5 44t64.5 38q8 -2 31 -2q20 0 152 19.5t177 19.5q47 0 66.5 -8.5t32.5 -10.5q25 -10 24 -27q0 -20 -92 -81.5t-252 -215t-305 -351t-175 -294t-30 -110.5z" />
<glyph unicode="8" d="M39 197q0 -121 74.5 -220.5t162.5 -99.5q98 0 225.5 95.5t266.5 269.5t139 354q0 68 -17.5 131.5t-55.5 132.5q-8 16 84 62.5t147 75t68 28.5q25 -2 32 -2q16 0 17 12q0 18 -19.5 62.5t-31 52.5t-31.5 8q-12 0 -31.5 -6t-66 -17.5t-131.5 -70.5t-138 -96 q-72 37 -137.5 76.5t-103.5 68.5q100 100 179 133t175 33q20 0 71 -2t82 -2q20 0 45 -41t37 -41q16 0 39 61q4 18 -10 43q-20 27 -37.5 54.5t-134.5 27.5q-121 0 -272.5 -43t-201.5 -88t-77 -79.5t-27 -67.5q0 -35 41 -68t177 -88q25 -12 49 -24q-207 -168 -327 -280 t-190.5 -221.5t-70.5 -223.5zM133 66q0 23 35 115.5t170 249.5t269.5 269.5t144.5 112.5q18 -16 35.5 -46t17.5 -93q0 -51 -20.5 -116.5t-86 -183.5t-213 -226.5t-329.5 -108.5q-23 0 -23 27z" />
<glyph unicode="9" d="M27 53q0 8 7 32t65.5 37t147.5 65.5t249.5 224.5t222.5 295q-49 -20 -98 -39q-137 -61 -228 -62q-66 0 -115 32t-68.5 96.5t-19.5 107.5q0 119 85 221t208 197.5t195 132.5t137 37q111 0 196 -92.5t85 -198.5q0 -72 -27 -144.5t-128 -238.5t-267.5 -339t-440.5 -390 q-12 -10 -46.5 -48t-71.5 -38t-62.5 35.5t-25.5 76.5zM303 772q0 -20 10.5 -20t33 -3.5t54.5 -3.5q180 0 352.5 129.5t210 252t42.5 139.5q0 18 -31 24q-25 4 -41 4q-158 0 -382 -186t-236.5 -255t-12.5 -81z" />
<glyph unicode=":" horiz-adv-x="485" d="M186 123q0 45 33 76q16 12 35 12q51 0 74 -47q18 -31 18 -68q0 -41 -22.5 -60.5t-42.5 -19.5q-55 0 -78 47q-16 29 -17 60zM274 451q0 45 25 64.5t43 19.5q51 0 74 -48q18 -31 18 -67q0 -41 -22.5 -60.5t-44.5 -19.5q-56 0 -76 45q-16 33 -17 66z" />
<glyph unicode=";" horiz-adv-x="485" d="M143 -141q0 18 14.5 41.5t22 38t21.5 14.5q-14 14 -15 90q0 27 3.5 40t14.5 31.5t38.5 31t52.5 12.5t52.5 -11.5t27.5 -48.5q0 -51 -66.5 -130t-89 -105.5t-53.5 -26.5q-23 0 -23 23zM270 389q0 41 23.5 61.5t46.5 20.5q51 0 72 -43q18 -31 18 -68q0 -39 -23.5 -59 t-41.5 -20q-55 0 -78 47q-16 33 -17 61z" />
<glyph unicode="&#x3c;" horiz-adv-x="894" d="M293 707l113 108q86 78 168.5 146.5t170.5 132.5q-12 10 21 32.5t80 22.5q29 0 22 -19q-6 -33 -39 -49q-115 -68 -199.5 -134t-150 -138t-108.5 -119q6 -33 14 -68.5t21.5 -86t93.5 -195.5t80 -156q0 -4 -8.5 0t-20.5 15l-41 39l-76 14q-10 49 -25.5 103.5t-37 129 t-45 134t-33.5 88.5z" />
<glyph unicode="=" horiz-adv-x="1021" d="M186 537q0 29 31 47t66 18q37 1 51 -22q33 -10 59.5 -16.5t46.5 -6.5q78 -10 93.5 -10h39.5q94 0 207 33l-67 -121q41 -23 60.5 -53.5t19.5 -36.5l-74 16q-203 92 -254 92q-106 0 -201 -18q-31 0 -54.5 23.5t-23.5 54.5zM422 813q0 35 27.5 60.5t60.5 17.5 q66 14 110 20.5t107 6.5q61 0 109.5 -5.5t124.5 -21.5l-70 -121q-41 6 -88 11t-80 5q-98 0 -153.5 -3t-127.5 -13q-20 14 -20 43z" />
<glyph unicode="&#x3e;" horiz-adv-x="894" d="M199 182q2 0 9 1t29.5 12.5t36 20.5t29.5 22l88 14q57 66 117.5 129t135 142.5t185.5 183.5q-4 12 -16 42.5t-34.5 87t-55.5 115t-88 142.5q6 16 -19.5 33.5t-50.5 17.5q-23 0 -24.5 -11.5t-1.5 -27.5q0 -12 6 -25q70 -74 111.5 -140.5t59 -135t29.5 -115.5 q-23 -27 -53 -60.5t-77.5 -83.5t-231.5 -205t-184 -159z" />
<glyph unicode="?" horiz-adv-x="1325" d="M307 104q0 -80 84 -94q8 -2 25 -2q47 0 74.5 32t27.5 77q0 35 -19.5 60.5t-45 30.5t-41.5 5q-47 0 -76 -33t-29 -76zM344 530q0 74 65.5 122t120 82t390 168t335.5 228q0 20 -9 41t-72 21q-68 0 -263.5 -42t-255.5 -42q-20 0 -28 2q-29 2 -48.5 -55.5t-52.5 -57.5 q-12 0 -46 11.5t-34 66.5q0 51 34 112.5t79 61.5q18 0 75.5 -11t76.5 -11q61 0 220 18.5t212 18.5q92 0 147.5 -22.5t74.5 -72t19 -88.5q0 -119 -141 -194.5t-407.5 -176t-327.5 -163.5q-31 -88 -46.5 -137.5t-35.5 -49.5q-18 0 -38.5 40t-32 75t-11.5 55z" />
<glyph unicode="@" horiz-adv-x="1077" d="M59 348q0 -100 64.5 -178t170 -106.5t181.5 -28.5q217 0 369.5 154.5t152.5 312.5q0 94 -53 133t-65 39q-2 -10 -5 -19q6 -26 31 -69q18 -31 19 -76q0 -145 -140.5 -300t-328.5 -155q-57 0 -137 23.5t-127.5 83t-47.5 135.5q0 150 149.5 293t319.5 143q31 0 83.5 -11 t85 -52t32.5 -99q0 -63 -32.5 -136t-73.5 -133t-91 -60q-49 0 -49 47q0 16 63.5 119.5t91.5 146.5t40 61h-119l-25 -32q-23 16 -51 28.5t-59 12.5h-25.5t-58.5 -13.5t-139 -126t-90 -227.5q0 -92 88 -92q39 0 79.5 23.5t73.5 70.5q-2 -12 -2 -20q0 -29 8.5 -41.5t24.5 -21.5 t39 -9q55 0 124.5 41t107.5 93t77 138t39 158q0 61 -30.5 102t-106.5 61.5t-154 20.5q-213 0 -358.5 -135t-145.5 -299zM309 254q0 76 117 219t154 117q6 -6 6 -19q0 -29 -19.5 -63.5t-74.5 -126.5q-37 -57 -87.5 -114.5t-76.5 -47.5q-18 10 -19 35z" />
<glyph unicode="A" horiz-adv-x="1007" d="M-84 55q6 -37 18.5 -51t51.5 -14q29 0 84 12q111 31 283.5 252t331.5 493.5t193.5 367.5t50 118.5t25.5 23.5q8 0 9 -24q-1 -23 -13 -76q-127 -387 -205.5 -637t-85.5 -317q0 -70 45.5 -136.5t104.5 -66.5q29 0 114 64.5t141 115.5t62.5 77t6.5 36q0 16 -11 16 q-18 0 -69.5 -50t-107.5 -104.5t-99 -54.5q-29 0 -38 29t-9 80v32.5t2 32.5q0 27 45 182.5t107.5 356.5t108.5 340t46 162q0 53 -39 86t-86 33q-43 0 -64.5 -76t-170 -355.5t-334 -520t-290 -276.5t-142.5 -48q-67 -27 -67 -87q0 -8 1 -16zM111 420q0 -14 2 -27.5 t22.5 -19.5t50.5 -6q37 0 54.5 31.5t99.5 72.5t223 111q180 78 421 111.5t241 49.5q0 6 -37 7q-68 0 -139.5 -8.5t-114.5 -12.5q-152 -16 -316.5 -66.5t-255 -99.5t-132.5 -51t-58 -14.5t-37 -26.5q-25 -23 -24 -51z" />
<glyph unicode="B" horiz-adv-x="1087" d="M102 1049q23 94 167.5 139t290 76.5t267.5 31.5q106 0 184.5 -23.5t112 -59t33.5 -76.5q0 -43 -30.5 -87t-93 -85t-133.5 -79t-77 -38q33 0 138.5 -39t163 -112.5t57.5 -155.5q0 -61 -39 -122t-175.5 -159t-314.5 -179t-389 -81q-86 0 -123 21.5t-37 56.5q0 25 15.5 49.5 t83 77.5t177 120.5t193.5 108.5t162 80t101 39q31 0 46 -10.5t15 -50.5q0 -39 -15.5 -60.5t-43.5 -15.5q-18 4 -40 10t-38 6q-18 0 -91 -27.5t-146.5 -60.5t-140.5 -81t-83 -64.5t-16 -26.5q0 -16 34.5 -21.5t53.5 -5.5q131 0 300 78t270 156t133 121t32 80q0 31 -20.5 51 t-70.5 51t-144.5 46t-211.5 15q-47 0 -70.5 5.5t-17.5 27.5q20 70 41 86.5t96.5 46t128 56t108.5 70.5t81 68.5t25 47.5q0 29 -85 43t-190 14q-104 0 -205.5 -19.5t-211 -51t-142.5 -64.5q-27 -33 -51 -63q-14 -14 -40 2t-24 37zM289 489q0 29 18 58l328 676q31 -6 47 -27.5 t16 -54.5q0 -10 -6 -23.5t-8 -19.5l-291 -668q-2 -6 -7 -21.5t-9 -36t-15 -20.5q-20 0 -46.5 51.5t-26.5 85.5z" />
<glyph unicode="C" horiz-adv-x="825" d="M45 152q0 -70 27.5 -139.5t77 -104.5t110.5 -35q90 0 221 72q131 82 207 127t207 143q51 55 104 113h-4q-34 0 -171 -88q-146 -94 -212.5 -131t-144.5 -65t-131 -28q-63 0 -95 38t-32 108q0 90 48 219t180 354.5t277.5 373.5t219.5 148q41 0 41 -47q0 -41 -27 -94 q-49 -102 -73.5 -145t-57.5 -79t-69.5 -64.5t-66.5 -58.5t-30 -62q0 -20 17.5 -41t44.5 -21q18 0 41.5 18.5t44 62.5t75 128t103.5 188.5t49 229.5q0 88 -76 88q-115 0 -315.5 -169t-290.5 -327.5t-156.5 -279.5t-104.5 -227.5t-38 -204.5z" />
<glyph unicode="D" horiz-adv-x="1112" d="M59 737q0 47 70 153.5t256 215t308 123t141.5 16.5t27.5 2q182 0 302 -117.5t120 -275.5q0 -367 -360.5 -610.5t-714.5 -243.5q-119 0 -119 70q0 12 9.5 35.5t33.5 23.5q18 -2 29 -2q10 14 18 25.5t48 76t98.5 173t117 234.5t88 191.5t39 102t15.5 61.5q4 23 6 41.5 t10 24.5q16 14 39 -1.5t42 -47t19 -56.5q0 -33 -70.5 -201.5t-131 -297.5t-105.5 -200t-45 -85q0 -12 11.5 -15t29.5 -3q276 35 514 204.5t238 483.5q0 162 -85 249t-255 87q-174 0 -327.5 -86.5t-233.5 -183.5t-80 -140q0 -66 135 -66q92 0 230.5 37t239.5 75t128 51 t51.5 38t54 45.5t48.5 20.5q18 0 24 -18.5t6 -37.5q0 -45 -43 -76.5t-124 -48t-216 -55.5t-209.5 -58.5t-151.5 -29.5t-106 -10q-70 0 -120 25.5t-50 80.5z" />
<glyph unicode="E" horiz-adv-x="890" d="M4 88q0 -49 17.5 -91t86 -98.5t201.5 -56.5q100 0 199.5 40t191.5 116q131 96 265 195q63 55 71 108q6 25 -10 25q-25 0 -199 -138.5t-238.5 -181.5t-209.5 -43q-88 0 -143.5 33t-55.5 102q0 100 78 220t184 214q108 94 220 168q105 70 141 69h4q4 -1 9 -1q28 0 58 30 q34 34 44 61.5t10 39.5q0 23 -16.5 28t-30.5 5q-25 0 -44.5 -4t-35 -7t-39 -16.5t-88 -52.5t-99.5 -49q-39 -4 -45 -4q29 86 90.5 163.5t126 138t148.5 112t131 51.5q35 0 43 -22.5t8 -31.5q0 -35 -21.5 -64.5t-41.5 -25.5q-10 2 -23.5 -13t-13.5 -36q0 -27 16.5 -45 t28.5 -18q23 0 40 36.5t29.5 61t22.5 61.5t10 68q0 53 -36.5 83t-92.5 30q-72 0 -135 -39t-161.5 -107.5t-210 -204t-111.5 -215.5q0 -41 35 -59l69 -25q-6 0 -109.5 -74.5t-196.5 -165.5t-121.5 -166t-39 -116t-10.5 -88z" />
<glyph unicode="F" horiz-adv-x="722" d="M53 -154q0 -63 22.5 -109t59.5 -46q18 0 35.5 9t76 51t58.5 67q0 4 -28.5 52t-28.5 81q0 221 152.5 467t384 493.5t372.5 284.5q153 28 307 57q20 4 43 11q33 18 67 56t34 46t-51.5 15.5t-75.5 21.5q-7 5 -22 5q-59 0 -241 -72q-228 -90 -480.5 -340.5t-468.5 -598.5 t-216 -551zM88 436q0 -23 16 -22q76 12 134 61q57 55 114 113q174 61 256 82.5t227.5 34t194.5 30t49 35.5q0 27 -104 26q-29 0 -67 -2t-83 -8q-158 -18 -259 -46.5t-191 -68.5t-112.5 -45t-45.5 -5q-29 2 -41 2q-14 0 -50 -28t-36 -112q-2 -33 -2 -47z" />
<glyph unicode="G" horiz-adv-x="927" d="M41 145q0 -70 35 -110.5t110 -40.5q72 0 258.5 199.5t278.5 335t130 190.5t74 102t66 86q10 23 21.5 46.5t11.5 50.5q0 23 -25 22q-29 0 -70.5 -31.5t-67 -116.5t-101.5 -179.5t-148.5 -188.5t-193.5 -213t-181.5 -169t-80.5 -50t-21 35q0 82 94.5 289.5t173 331.5 t84.5 130q8 0 17 2q31 39 64.5 82t70.5 90q29 27 57 54q63 76 70 75q-4 -12 -7 -20t-7 -15.5t-4 -9.5q37 53 98 107.5t123 70.5q8 2 22.5 -4t18.5 -14q8 -18 -2.5 -39.5t-13.5 -31t-20.5 -26t-27.5 -24.5q-27 -20 -26 -55q0 -37 34 -43q27 -6 35 7t32 85t30 102.5t6 57.5 q0 35 -15.5 59.5t-54.5 34.5q-9 2 -19 2q-85 0 -282 -171q-221 -191 -345 -389t-213 -390.5t-89 -315.5zM49 -537q0 -70 40 -103.5t73 -33.5q63 0 135 76t145.5 220.5t114.5 247.5t153.5 401t163.5 393q75 112 132 204q16 27 25 51.5t9 41.5q0 35 -26 34q-20 0 -98 -101 t-214.5 -376.5t-160 -376t-63.5 -191.5t-132 -314.5t-196 -223.5q-31 0 -31 58q0 16 1 34.5t20.5 90t104.5 150.5t169 153q47 49 287.5 170.5t284.5 149.5t74 64.5t30 57.5q0 16 -15 16q-12 0 -20 -6t-314.5 -177t-423 -281.5t-192.5 -226.5t-76 -202z" />
<glyph unicode="H" horiz-adv-x="1273" d="M195 31q0 45 16 89t70.5 158.5t119 222t206 333t183 312.5t41.5 105q0 27 -32 27q-14 0 -53 -9t-125 -57.5t-142.5 -79t-82 -67.5t-56.5 -80q-31 -23 -57 -22q-14 0 -30.5 11t-19.5 38q0 35 21.5 55t67.5 43q133 76 288.5 161t235.5 85q51 0 72.5 -39t21.5 -84 q0 -35 -8 -61.5t-66.5 -138t-181.5 -313.5t-186.5 -312.5t-116.5 -233.5t-66.5 -157.5t-13.5 -57.5q-2 -12 -2 -29q0 -23 -10 -34q-10 -16 -35 -3t-42 48.5t-17 89.5zM317 590q0 8 20.5 22t169 67.5t404.5 125.5t510 72q35 0 65 -10.5t30 -35.5q0 -6 -8.5 -27.5t-33 -47 t-49.5 -25.5q-10 0 -32.5 15.5t-165.5 15.5q-162 0 -343.5 -28.5t-274.5 -63.5t-93 -41q154 -16 271.5 -83t117.5 -206h17q47 104 84.5 179t100 178.5t128 211t94.5 167t83 190.5t95 147q25 8 27 -33t4 -77q4 -20 4 -31q0 -59 -56 -147.5t-108 -168.5q-104 -197 -219 -415.5 t-151.5 -317t-41.5 -119t-5 -36.5q4 -14 4 -21q0 -6 -7.5 -19.5t-15.5 -25.5t-24 -12q-23 0 -42.5 13t-38 30.5t-18.5 52.5q0 25 9.5 63.5t11.5 60t2 44.5q0 139 -83 237.5t-276 98.5h-43t-45.5 -5t-40 -5h-14.5q-23 0 -23 10z" />
<glyph unicode="I" horiz-adv-x="495" d="M31 45q0 90 74.5 250t242.5 380t217 292.5t49 177.5q0 25 -7 67.5t-7 61.5q0 18 17.5 22.5t23.5 8.5q23 20 34 28t27 8q27 0 60 -28.5t33 -63.5q0 -61 -52.5 -159.5t-117 -218t-189.5 -302t-168 -250t-73.5 -138t-34.5 -97.5t-8.5 -68t-4.5 -61q0 -35 11 -35q6 0 18 21 q-8 0 -24.5 -6.5t-34.5 -6.5q-37 0 -61.5 31t-24.5 86z" />
<glyph unicode="J" horiz-adv-x="714" d="M-94 -432q0 70 27.5 135.5t98 180t173 165.5t294 110.5t273.5 118t107 58.5q12 0 12 -12q0 -37 -87 -105.5t-223.5 -102.5t-254.5 -63q-121 -41 -192 -146.5t-117 -216t-46 -161.5q0 -23 13 -23q16 0 60 60.5t133 232.5t189.5 376t196.5 416t154.5 361.5t74 213 t15.5 102.5q0 78 -57 78q-35 0 -75 -21.5t-89 -56.5q-104 -82 -217 -272.5t-113 -379.5q0 -16 2 -33.5t8 -79t25 -81.5q26 -22 55 -45q20 -27 21 -64q0 -45 -20.5 -56t-33.5 -11q-25 0 -44 21.5t-19 49.5q0 43 -27.5 137.5t-27.5 225.5q0 135 33.5 251t101 216t187.5 179 t224 79q33 0 61.5 -8t63.5 -37t35 -129q0 -125 -70.5 -331t-153.5 -388t-208 -436t-199.5 -388t-164 -247t-152.5 -113q-35 0 -35 49v52q0 39 -4 57t-6 40.5t-2 41.5z" />
<glyph unicode="K" horiz-adv-x="1153" d="M84 27q0 37 12.5 78.5t74.5 173t165.5 298t205 326.5t141.5 243t40 105q0 27 -33 27q-14 0 -52 -9t-125 -57.5t-143.5 -79t-96.5 -88t-42 -59.5q-31 -23 -57 -22q-43 0 -51 49q0 33 22.5 54t110.5 70.5t243.5 134.5t237.5 85q51 0 66.5 -29t21.5 -53.5t6 -44.5 q0 -35 -6 -53.5t-64.5 -131t-183 -317.5t-188 -315.5t-114 -226t-68 -159.5t-17.5 -67v-29q0 -20 -12 -34q-4 -8 -27.5 -5t-39 30.5t-21.5 56t-6 49.5zM215 786q190 74 335.5 141.5t318.5 160t266.5 150.5t255.5 169q20 6 39.5 -0.5t23.5 -22.5q6 -12 6 -24 q0 -29 -20.5 -51.5t-46.5 -20.5q-104 -57 -219 -117.5t-358 -174t-535 -222.5q88 -82 147 -133t171 -140t220.5 -165t211 -137.5t102.5 -108.5q0 -43 -23 -67.5t-49 -24.5q-41 0 -208 165t-201 195.5t-122 109.5t-206 173q-113 89 -113 109z" />
<glyph unicode="L" d="M6 -20q0 -27 44 -66t124 -39q115 0 224.5 123t205.5 307t183 395t159 358.5t129.5 223.5t69.5 76q0 -20 2 -41q-10 -39 -88 -179.5t-295 -266.5t-231.5 -131t-30.5 -5q-35 8 -49 8q-15 0 -25 -8q-35 -23 -53.5 -40t-18.5 -46q2 -31 43 -31q25 0 174.5 63.5t383 279 t233.5 366.5q0 37 -15.5 67.5t-39.5 30.5q-10 0 -24.5 -8t-57.5 -34.5t-162 -252t-242 -457t-256 -474.5q-152 -240 -284 -240h-19q-10 2 -30.5 11.5t-20.5 23.5q0 16 68.5 39.5t156.5 42t158 18.5q145 0 261 -73.5t200 -183t116.5 -136.5t53.5 -27q33 0 43 54q1 5 1 11 q1 42 -53 84q-60 48 -96.5 125t-162.5 142.5t-289 65.5q-242 0 -366 -72t-124 -104z" />
<glyph unicode="M" horiz-adv-x="1671" d="M188 -2q0 -43 33 -53q29 -8 59.5 10t73.5 101t161 220.5t244.5 255t280.5 244.5q96 78 131 78q16 0 17 -18q0 -27 -20.5 -70t-50.5 -91t-160 -229.5t-130 -232.5q0 -37 60 -37q76 0 124 58.5t110.5 132t161.5 193.5t184 208t159 139t90 51v-26q-45 -70 -100 -164 t-173 -302t-118 -321q0 -63 25.5 -77.5t61.5 -38t56 -23.5q16 0 44 30t28 56q0 14 -21.5 38t-21.5 75v33q6 18 88 161.5t183.5 323.5t101.5 264q0 25 -10 49q-27 49 -78 49q-72 0 -184.5 -89t-202.5 -189t-115 -125t-33 -25q-4 0 -1 17.5t23.5 61.5t48.5 103.5t28 100.5 q0 51 -34 73.5t-61 22.5q-37 0 -70.5 -20.5t-107.5 -85t-189.5 -185t-226 -238.5t-149.5 -153q119 213 255 455t142 242q41 29 41 88q0 49 -22.5 79.5t-61.5 30.5q-49 0 -96 -39q-43 -36 -43 -75v-7q-170 -113 -272.5 -165t-148.5 -65t-58.5 -36.5t-21.5 -43t-9 -38.5 q0 -18 10 -28.5t29 -10.5q18 0 49 13.5t53.5 53.5t83 80t128 73.5t93.5 33.5q23 0 23 -22q0 -25 -24.5 -72t-60.5 -117.5t-80 -149.5t-148.5 -262.5t-131 -232.5t-38 -84t-11.5 -57z" />
<glyph unicode="N" horiz-adv-x="1234" d="M59 96q8 -45 22.5 -89t49.5 -44q25 0 128 136.5t306 373t357.5 400t173 173t50.5 16.5t54 7q29 0 45.5 -9t16.5 -34q0 -20 -10.5 -44t-118 -180.5t-230.5 -385t-123 -314.5q0 -20 17.5 -38.5t54.5 -52.5t82 -34q57 0 151.5 56.5t205 149.5t110.5 128q0 16 -17 17 q-20 0 -99 -54.5t-145.5 -86t-105.5 -31.5q-47 0 -47 55q0 78 75 228.5t195.5 358.5t136 238.5t15.5 63.5q0 37 -16.5 64.5t-38 35.5t-47.5 8q-37 0 -102.5 -16t-245 -182t-357.5 -336l-4 12q4 16 20 49q121 160 187.5 256t66.5 139q0 17 -10 31q-45 51 -100 51 q-20 0 -73.5 -17t-142.5 -50t-150.5 -53.5t-98.5 -61.5t-37 -84q0 -23 11.5 -40t23.5 -22t35 -5q12 0 31.5 3t45 8t51 82t86 114.5t128.5 37.5q49 0 49 -37q0 -35 -42 -83t-188.5 -268t-287 -431t-144.5 -209z" />
<glyph unicode="O" horiz-adv-x="851" d="M55 211q0 -113 36 -187.5t101.5 -98t118.5 -23.5q115 0 209 83t163 196.5t152 287.5t150.5 387t67.5 354q0 90 -30 139.5t-97 49.5q-127 0 -216 -67.5t-152.5 -184.5t-104.5 -226.5t-41 -179.5q0 -63 41 -63q16 0 55 17.5t39 72.5q0 12 -5 23.5t-18.5 31t-13.5 37.5 q0 25 16.5 77t56.5 143t118.5 158t144.5 67q41 0 64.5 -30t23.5 -95q0 -82 -41 -216.5t-166 -403.5t-249 -430t-202 -161q-43 0 -65.5 50.5t-22.5 136.5q0 164 63.5 345t124 351t121 275.5t130.5 121.5q37 10 37 68q0 18 -6.5 29.5t-20.5 11.5q-16 0 -37.5 -13.5t-122 -97.5 t-261.5 -429t-161 -607z" />
<glyph unicode="P" horiz-adv-x="1110" d="M113 926q0 20 5 43.5t56 64.5q63 43 147.5 103.5t314.5 131t417 70.5q84 0 164.5 -24.5t128 -87t47.5 -150.5q0 -63 -46.5 -223t-199 -241t-359.5 -81q-63 0 -127.5 3.5t-103.5 5.5q-71 -1 -98 -19q-25 -18 -82 -18q-31 0 -49.5 7t-14.5 21q14 37 69.5 57.5t109 29 t79.5 8.5q33 0 85.5 -5.5t70.5 -5.5q88 0 184.5 35t178 93.5t117.5 146.5t36 162q0 53 -19.5 92t-84 66.5t-207.5 27.5q-145 0 -300 -37t-273.5 -109.5t-144.5 -147.5t-58 -85q-23 -6 -33 14.5t-10 51.5zM158 59q0 35 3 51.5t17 36.5l496 951q31 -25 56.5 -68t25.5 -78 q0 -39 -33 -59q-14 -10 -25.5 -30.5t-21.5 -39.5l-395 -755q4 -12 -3.5 -50t-22.5 -48.5t-24 -10.5q-27 0 -50 34t-23 66z" />
<glyph unicode="Q" horiz-adv-x="886" d="M96 176q0 -133 82 -180t158 -47q102 0 201.5 69.5t175 159.5t199.5 263t230.5 387t106.5 350q0 59 -22.5 95t-56 44t-55 10t-40.5 2q-92 0 -174 -53t-162 -149.5t-145.5 -213t-65.5 -174.5q0 -45 41 -45q14 0 39 7.5t45.5 34t14.5 57.5q-2 10 -11.5 27.5t-9.5 29.5 q0 23 26.5 75t82 135t137.5 134t145 51q92 0 92 -96q0 -76 -63 -212t-238.5 -387t-325 -390.5t-231.5 -139.5q-37 0 -57 33t-20 90q0 78 37.5 193t111.5 248t165 292.5t170.5 256t151.5 96.5q20 0 36 21.5t16 45.5v13q-4 8 -7.5 16t-23.5 8q-23 0 -64 -20 q-109 -68 -277.5 -281t-291.5 -452.5t-123 -403.5zM328 221q8 -14 49 -14q16 10 33 22h14q47 -133 106 -289q56 -148 143 -148q5 0 11 1q29 0 52.5 21.5t23.5 48.5q0 23 -17.5 36t-44.5 19q-10 4 -28.5 0t-20.5 -4q-10 0 -26.5 22.5t-96.5 195.5q-72 158 -134 158 q-5 0 -11 -1q-27 -8 -46.5 -27.5t-6.5 -40.5z" />
<glyph unicode="R" horiz-adv-x="917" d="M39 76q0 41 8 71.5t75.5 175t192.5 361.5t149.5 268.5t24.5 79.5q-6 39 -6 53q1 17 19 27q10 8 28 8q51 0 65.5 -26.5t22 -40t7.5 -27.5t-8.5 -33.5t-82 -153.5t-148.5 -272.5t-141.5 -291t-83 -199.5t-16.5 -74q0 -39 -14 -59q-6 -10 -30.5 -1t-37 32.5t-18.5 52 t-6 49.5zM102 1106q0 31 34 59.5t139.5 61.5t277.5 62.5t321 29.5q156 0 275 -62.5t119 -189.5q0 -160 -133 -210t-299 -91q-127 -31 -349.5 -75t-316.5 -64l264 -279q152 -160 252 -262t264 -266q25 -18 25 -56q0 -55 -28.5 -75.5t-45.5 -20.5q-51 0 -78 45l-471 637 q-12 16 -116 142q-96 117 -96 137q0 2 1 2l6 31l137.5 50t152.5 53t204 59t260.5 83t183 84t78.5 86q0 37 -72.5 71t-194.5 55.5t-243 21.5q-106 0 -204.5 -15.5t-137.5 -35t-59.5 -55.5t-46 -55.5t-47.5 -19.5q-16 0 -26.5 8.5t-20 26t-9.5 27.5z" />
<glyph unicode="S" horiz-adv-x="1144" d="M23 -78q0 -31 48 -51.5t89 -20.5q86 0 283.5 96.5t352 244t154.5 309.5q0 84 -87 121.5t-324 107.5q-94 23 -195.5 49.5t-101.5 65.5q0 8 50 88t296 200.5t452 120.5q84 0 135.5 -19.5t76 -58t24.5 -79.5q-10 -8 -23.5 -18.5t-13.5 -30.5q0 -10 5 -34t38 -24 q27 0 48.5 25.5t21.5 66.5q0 131 -82 229.5t-205 98.5q-272 0 -569 -170t-346 -424q-1 -4 -1 -7q0 -43 85 -80q92 -40 247.5 -90t220 -90t64.5 -104q0 -51 -52 -123.5t-163 -168.5q-106 -102 -183 -169t-130 -67q-33 0 -54 27q86 27 172 53q317 51 527.5 101t309.5 117 t99 89q0 18 -24 19q-18 0 -96 -44.5t-280 -81t-412 -73.5t-310 -85t-123.5 -71.5t-23.5 -44.5z" />
<glyph unicode="T" horiz-adv-x="741" d="M92 1049v18q4 39 20.5 77t31 43t30.5 5q29 0 142.5 67.5t368.5 111.5t538 44q14 0 49 10.5t57 6.5q31 -6 43 -27t12 -49q0 -12 -5 -39t-37 -43q-25 -13 -52 -13q-8 0 -16 1q-18 4 -35.5 33.5t-58.5 29.5q-258 0 -473 -40t-367 -114.5t-166 -101.5t-18 -35 q-25 -43 -45 -43q-18 0 -19 58zM133 100q0 41 15.5 91.5t61.5 170t231.5 379.5t367.5 512q16 18 43 19q43 0 57 -31q3 -8 3 -16q0 -23 -20 -45q-28 -32 -54 -60q-76 -129 -220.5 -317.5t-214 -314.5t-96.5 -312v-9q0 -19 5 -55q7 -46 7 -55q0 -20 -5 -32.5t-23.5 -25.5 t-44.5 -13q-10 0 -25.5 4t-39 14t-36 34.5t-12.5 61.5z" />
<glyph unicode="U" horiz-adv-x="1114" d="M61 182q0 111 50.5 252t127 269t157.5 266.5t116 210t35 108.5q0 31 -31 31t-107.5 -36t-125 -83t-99.5 -129q-6 -10 -6 -22q2 -16 2 -25q0 -14 -9 -24.5t-38 -14.5q-29 -2 -39 31t-10 80q0 35 20.5 55t101.5 76.5t196.5 117t191.5 60.5q39 0 65.5 -17.5t33.5 -45 t7 -37.5q0 -68 -137 -312.5t-208.5 -394t-119 -277.5t-47.5 -188q0 -43 29 -43q41 0 120 74t158.5 173t153.5 220t140.5 251t109.5 223t97.5 135t103.5 42q55 0 55 -47q0 -39 -71.5 -174t-129 -277.5t-91.5 -265t-34 -155.5q0 -57 34 -89t85 -32q59 0 102.5 28.5t117 82 t87.5 53.5q6 0 8.5 -5t-3.5 -22q-6 -27 -21.5 -46t-100.5 -87t-178.5 -117t-150.5 -49q-63 0 -85 53.5t-22 147.5q0 25 2.5 74t2.5 67q0 68 22.5 152t32.5 100q-51 -84 -138 -222t-209 -280q-114 -132 -186 -132q-5 0 -10 1q-84 12 -121 68.5t-37 146.5z" />
<glyph unicode="V" horiz-adv-x="770" d="M78 795q0 20 14 45.5t41 46t182.5 151.5t202.5 146.5t63.5 18.5t30.5 3q31 0 49.5 -20.5t18.5 -50.5q0 -35 -27.5 -84.5t-75 -135.5t-194.5 -407.5t-147 -390.5q23 6 45 12q49 55 190 270t261 388.5t228.5 305.5t178 180t105.5 66.5t67 18.5q29 0 45 -37t16 -72 q0 -55 -56 -82.5t-98 -47t-145.5 -121t-271.5 -320.5t-318.5 -441.5t-168 -243t-48.5 -20.5q-37 0 -72.5 56.5t-35.5 132.5q0 82 27.5 171t110.5 277.5t126 287.5t43 134q0 20 -14 21q-16 0 -54.5 -28t-95.5 -81t-83 -78.5t-32 -62.5q-8 -29 -20 -43.5t-35 -14.5 q-14 0 -33.5 12.5t-19.5 37.5z" />
<glyph unicode="W" horiz-adv-x="1300" d="M80 692q0 25 16.5 50.5t83 80t232.5 162t226 125.5t87 25.5t39 7.5q41 0 64.5 -41t23.5 -86q0 -39 -21.5 -78t-57.5 -101.5t-155.5 -301t-119.5 -318.5q0 -23 14 -22q18 0 53 30.5t131.5 140t199.5 273.5t161.5 267.5t85.5 148.5q33 47 74 47q12 0 26 -4t14 -35 q0 -57 -73.5 -217t-128 -305.5t-54.5 -270.5q0 -75 36 -75h1q74 0 211 222t205 436t68 376q0 47 20.5 82t44 38t30.5 3h9q59 0 60 -78q0 -35 -28 -169t-94.5 -292t-152.5 -282.5t-214 -276.5t-220 -152q-53 0 -86 43t-33 129q0 89 39 218q6 23 6 30q-23 -16 -43 -33 q-61 -76 -142 -177t-148.5 -171.5t-120 -114.5t-87.5 -44q-10 0 -42.5 20.5t-32.5 91.5q0 82 71.5 229.5t137.5 280.5q35 84 111.5 230.5t76.5 181.5q0 29 -27 28q-35 0 -115.5 -46t-204.5 -132t-142 -155q-8 -61 -66 -62q-16 0 -32.5 10.5t-16.5 32.5z" />
<glyph unicode="X" horiz-adv-x="942" d="M33 14q0 31 21.5 67t82 88t182 185t242.5 264l639 687q29 29 57.5 49t53.5 20q27 0 55.5 -25.5t28.5 -48.5q0 -29 -31 -48t-112 -56t-170 -123t-239.5 -271.5t-280.5 -330.5t-197.5 -226t-159.5 -218q-18 -31 -51 -56.5t-64 -25.5q-20 0 -38.5 18.5t-18.5 50.5zM233 1135 q0 37 35 71.5t83 49t98.5 24.5t93.5 26.5t137 51.5t102 35q2 0 4 -7.5t65.5 -37t63.5 -74.5q0 -8 -55 -184.5t-92 -355.5t-57.5 -308t-20.5 -209q0 -115 53 -115q47 0 150.5 94.5t169.5 139.5q27 6 53 12q0 -51 -51 -98t-162.5 -131t-153.5 -104.5t-83 -20.5q-51 0 -87 34.5 t-49.5 73.5t-13.5 91q0 70 23.5 178t57.5 265t107.5 378t73.5 256q0 41 -35 41q-41 0 -141 -48.5t-147 -101.5q-48 -65 -66 -90q-25 -31 -59 -31q-41 0 -69 38t-28 57z" />
<glyph unicode="Y" horiz-adv-x="962" d="M94 182q0 111 50.5 252t127 269t156.5 265.5t116 210t36 109.5q0 31 -31 31q-33 0 -110 -36t-125 -83t-76.5 -93t-28.5 -56q4 -20 4 -31q0 -14 -9 -24.5t-34 -10.5q-33 0 -44 33t-11 78q0 37 17.5 53t106.5 77.5t200.5 120t187.5 58.5q39 0 65.5 -17.5t33.5 -45t7 -37.5 q0 -70 -138 -315t-208 -389t-118 -277.5t-48 -190.5q0 -43 29 -43q41 0 120 74t158.5 173t153.5 220t140.5 251t108.5 222t98 135t101 43q55 0 56 -47q0 -37 -76 -183.5t-136.5 -285.5t-97 -275t-98 -271.5t-131 -288t-109.5 -267t-102.5 -186.5t-144.5 -72q-53 0 -83 47.5 t-30 112.5q0 20 20.5 173t81 206t295 132t357.5 194.5t146.5 129t37.5 13.5q18 0 19 -21q0 -31 -78 -106.5t-301.5 -224t-304 -215t-102 -145.5t-32 -125t-10.5 -68q0 -31 15 -31q66 0 144.5 217t122.5 334t95 278.5t72 236.5t37 130q-51 -84 -138.5 -222t-208.5 -280 q-114 -132 -186 -132q-5 0 -10 1q-82 12 -119 68.5t-37 146.5z" />
<glyph unicode="Z" horiz-adv-x="1067" d="M96 -516q0 70 50.5 192.5t143.5 200.5t371.5 200t404.5 190.5t148 68.5q23 0 23 -19q0 -25 -71.5 -68.5t-344 -172.5t-416 -221.5t-179.5 -180.5t-36 -129q0 -57 56 -98q5 -4 12 -4q29 0 79 75q62 91 131 223t141.5 266t174 344t105.5 229q-41 -49 -115 -133.5t-208 -198 t-242.5 -169.5t-141.5 -56q-37 0 -37 28q0 23 22 61t69 89q82 90 329.5 341t356 379t108.5 197q0 63 -110 64q-37 0 -158 -16.5t-229.5 -57.5t-249.5 -156q-8 -29 -16.5 -62.5t-43.5 -33.5q-16 0 -47 12.5t-31 59.5q0 35 15.5 71.5t37 75.5t74 49.5t119 46t201.5 70.5 t246 35q162 0 264 -57.5t102 -145.5q0 -72 -177 -243t-436 -392t-259 -235q12 2 24 6q141 70 299 200t220.5 227t122 126t110.5 29q45 0 45 -43q0 -47 -62.5 -130t-101.5 -146.5t-79 -165t-100 -244t-152.5 -293t-201 -247.5t-179 -145.5t-127.5 -48.5q-23 0 -38.5 45 t-15.5 111z" />
<glyph unicode="[" horiz-adv-x="428" d="M-106 -295q0 -25 17 -42t44 -17q35 0 69.5 25.5t34.5 58.5q0 12 -18 12q-31 -4 -45 -4q-20 0 -28.5 8t-2.5 33q47 195 107.5 365.5t199 536.5t195.5 544q4 16 33 16q27 -2 39 -2q31 0 36 16q10 23 -14 43.5t-53 20.5q-117 0 -164 -171t-182 -588t-198.5 -617.5 t-66.5 -214t-3 -23.5z" />
<glyph unicode="\" horiz-adv-x="880" d="M182 1475q0 25 11 24q41 0 121.5 -274.5t99 -473t167 -588.5t148.5 -556q0 -18 -6 -19q-20 0 -88 165t-152 432.5t-109.5 421t-47 295.5t-74.5 294q-35 104 -52.5 175t-17.5 104z" />
<glyph unicode="]" horiz-adv-x="585" d="M-45 -307q10 16 35 16q31 -4 47 -4q29 0 41 10.5t49 118t114.5 358t179 582t191.5 610.5q2 8 -5 11.5t-23 3.5h-35q-37 0 -35 18q6 37 42 55.5t83 18.5q35 0 59.5 -30.5t24.5 -65.5q0 -8 -35 -107.5t-124 -356.5t-235.5 -686t-167 -490.5t-40 -89t-40 -40t-36.5 -12.5 q-37 0 -70.5 25.5t-19.5 54.5z" />
<glyph unicode="^" horiz-adv-x="688" d="M250 1024l4 59q49 35 80 60.5t87 84t111 142.5q12 -80 60.5 -122t95.5 -54l-29 -123q-78 31 -101 74t-33.5 68.5t-10.5 48.5q-14 -41 -35.5 -74t-76 -87t-152.5 -77z" />
<glyph unicode="_" horiz-adv-x="2023" d="M-55 -428l6 74h2050l-6 -74h-2050z" />
<glyph unicode="`" horiz-adv-x="2023" d="M250 1253q10 -57 21.5 -88.5t34 -80t38.5 -80.5q14 -23 27.5 -27t29.5 -4q8 0 25 4l55 47q-35 37 -61.5 75t-50 89t-35.5 96t-12 100z" />
<glyph unicode="a" horiz-adv-x="688" d="M-16 51q0 16 23.5 120.5t173 253t286.5 148.5q23 0 52.5 -7t55 -34.5t25.5 -60.5q0 -8 -7 -25.5t-42 -17.5q-43 4 -66 4q-12 0 -94 -21.5t-129 -49t-128 -126t-81 -114.5t25 -17q23 0 106.5 44.5t193.5 154t204 205.5q16 14 36.5 25.5t36.5 5.5q27 -14 27 -52 q0 -20 -7 -36.5t-33 -56.5t-62.5 -117.5t-36.5 -114.5q0 -27 20 -27q25 0 80 43t114.5 102.5t71.5 59.5q2 -14 7 -27q-12 -59 -84 -134t-142.5 -124t-107.5 -49q-27 0 -39 24.5t-12 61.5q0 51 13 109.5t36 146.5q-4 0 -16.5 -15.5t-34.5 -45.5q-94 -98 -223.5 -196.5 t-194.5 -98.5q-47 0 -47 59z" />
<glyph unicode="b" horiz-adv-x="495" d="M31 162q0 131 59.5 323.5t163.5 374.5q92 160 239.5 339t200.5 179q14 0 19.5 -21.5t5.5 -51.5q0 -82 -46 -199t-173 -326t-245 -344q-108 -124 -181 -124q-6 0 -13 1q-14 2 -14 13q0 14 22.5 37.5t37 40t26.5 25.5t69.5 57.5t135.5 141.5t211 314t133 285 q-43 -31 -86 -60q-90 -104 -202.5 -273t-189.5 -405.5t-77 -359.5q0 -57 20 -57q29 0 89 92q10 14 -15.5 28.5t-25.5 34.5q0 25 25.5 61t62 57.5t92.5 37.5q3 1 7 1q24 0 52 -52q32 -58 58 -58q16 0 36.5 9.5t72.5 50.5t79 41q4 -12 8 -23q-14 -43 -72.5 -98t-108.5 -81 t-85 -26q-20 0 -45 9.5t-29 3.5q-74 -88 -130 -130t-97 -42q-43 0 -66.5 46t-23.5 128z" />
<glyph unicode="c" horiz-adv-x="532" d="M6 143q0 78 59.5 169t165 183.5t230.5 92.5q10 0 22.5 -2t18.5 -2q25 -6 38 -26.5t17 -49.5q1 -8 1 -16q0 -40 -32 -82q-39 -52 -82 -52q-18 0 -30 11q-8 6 3 35.5t11 39.5q0 16 -18 17q-12 0 -57.5 -12.5t-111 -78t-87 -112.5t-29.5 -79t-8 -56q0 -33 14 -51.5t49 -18.5 q43 0 121 35t171 107.5t141.5 119.5t66.5 47q16 0 16 -26q0 -31 -80.5 -112t-198.5 -167t-222 -86q-45 0 -82 17.5t-72 58.5t-35 96z" />
<glyph unicode="d" horiz-adv-x="765" d="M6 111q0 88 43 155.5t108.5 152.5t135 133t147.5 58q45 0 68 -39q12 -16 18 -45.5t6 -60.5q0 -25 -6 -37t-18 0q-23 25 -64 25q-70 0 -152.5 -63.5t-125.5 -150.5t-43 -124t27 -37q25 0 132 102.5t160 157.5q74 94 160 188l82 92q109 117 142.5 162t77.5 134.5t57.5 122 t13.5 42.5q-4 0 -15.5 -9t-103.5 -157.5t-176 -380t-84 -348.5q0 -20 13.5 -33.5t33.5 -5.5q72 33 137 87q64 54 88 90q22 33 50 32h6q14 -2 14 -16t-15.5 -36.5t-59.5 -74t-129 -111t-148 -59.5q-47 0 -74 37t-27 117q0 154 88.5 354.5t185.5 356t177 272.5q10 20 24.5 45 t34.5 25t44 -21.5t24 -44.5q0 -10 -9.5 -34.5t-26.5 -108.5t-193.5 -338t-384 -462t-258 -256t-91.5 -48q-39 0 -66.5 50t-27.5 110z" />
<glyph unicode="e" horiz-adv-x="512" d="M0 147q0 14 12.5 35t42 32t45.5 17q104 63 208 131t104 103q0 14 -31 14q-68 0 -131.5 -76.5t-90 -135t-35.5 -91.5t-9 -59q0 -31 12 -47.5t45 -16.5q41 0 120 37t181 113t145.5 119t61.5 43q12 0 12 -19q0 -31 -18 -45q-182 -182 -311.5 -264t-200.5 -82 q-86 0 -110.5 67.5t-24.5 118.5q0 94 50 187.5t119.5 147.5t124 78t107.5 24q20 -1 45 -7q29 -4 49.5 -26.5t18.5 -48.5q-10 -68 -227.5 -215.5t-293.5 -147.5q-20 0 -20 14z" />
<glyph unicode="f" horiz-adv-x="415" d="M-199 -653q0 -8 11 -9q25 -4 32 -4q45 0 79 32t147.5 144.5t185.5 197.5t72 136q0 39 -40 92.5t-73 96.5q-8 10 9.5 19t35.5 18q51 39 164 113.5t142.5 100t47 59.5t17.5 44q-16 -2 -31 -2q-20 -12 -85.5 -60.5t-169 -110.5t-212.5 -116q-45 -14 -79 -25.5t-34 -27.5 q0 -18 72 -41.5t104.5 -56.5t32.5 -80q0 -82 -86 -186.5t-122.5 -149.5t-49.5 -45q-7 0 -7 14q0 19 43 139q46 128 142.5 348t184.5 402t90 182q109 145 190.5 308t81.5 284v31q-6 33 -13 53.5t-26 20.5q-12 0 -26.5 -14.5t-42 -66.5t-100 -210t-199.5 -436 q-14 -20 -105.5 -129t-142.5 -154q-14 -12 -29.5 -33.5t-15.5 -38.5q0 -14 14 -20q16 -4 54 30.5t83 77.5q6 -4 13 -6q-45 -133 -112.5 -273t-104.5 -252t-89.5 -250t-52.5 -146z" />
<glyph unicode="g" horiz-adv-x="659" d="M-162 -580q0 186 184.5 387t385.5 242q12 31 24 62.5t37 86t25 74.5l-62 -20q-59 -45 -102 -78t-138.5 -102.5t-134.5 -69.5q-35 0 -55 47q-12 35 -12 68q0 61 37 104q80 98 109.5 131t97 84t168 90t157.5 39q16 0 23.5 -6t4.5 -16.5t0 -18.5t7 -18q43 29 57 29 q6 0 10.5 -13.5t10.5 -25t6 -27.5q0 -10 -4 -24.5t-23.5 -66.5t-36 -89t-71.5 -144q43 33 101 78t105.5 92t69.5 47q0 -16 2 -32q-27 -47 -107.5 -128t-134 -124t-102.5 -76q-117 -203 -290 -409.5t-225 -235.5t-93 -29q-16 0 -21.5 17.5t-7.5 36t-2 38.5zM-100 -494 q0 -25 24 -24q14 0 57.5 15.5t118 102.5t148.5 189q16 23 31.5 49.5t15.5 44.5q0 16 -16 17q-25 0 -108 -49.5t-177 -169t-94 -175.5zM102 109q2 -3 8 -3q19 0 76 36q74 46 125 82t125 110q29 37 60 74q-10 6 -23 6q-35 0 -78 -28.5t-133 -98.5q-63 -51 -116 -105 q-46 -46 -46 -66q0 -4 2 -7z" />
<glyph unicode="h" horiz-adv-x="749" d="M16 0q35 119 124 323.5t200 376.5q150 301 227.5 448.5t112.5 147.5t35 -139q0 -168 -89 -326.5t-192 -226.5q-14 -6 -94 -154.5t-80 -168.5q0 -8 11.5 -4t80 76.5t150.5 123.5t133 51q39 0 59.5 -24.5t20.5 -65.5q0 -37 -21.5 -88t-35 -98t-13.5 -70q0 -25 17 -24 q16 0 41.5 20.5t97 85t102.5 84.5q10 -2 23 -2q0 -51 -27 -82q-51 -45 -92 -92t-116 -102.5t-126 -55.5q-49 0 -49 64q0 51 36 151.5t36 141.5q0 37 -27 37q-37 0 -108.5 -55.5t-128.5 -100.5q-53 -33 -117 -107.5t-119 -144.5h-72z" />
<glyph unicode="i" horiz-adv-x="325" d="M16 82q0 94 54.5 219t91.5 205q0 33 28.5 61.5t63.5 28.5q12 0 30.5 -10.5t37 -42t18.5 -62.5q0 -43 -30.5 -50t-101.5 -109.5t-82 -156.5t-11 -63q0 -12 10 -12q8 0 120.5 74t145.5 116t53.5 55t28.5 1q8 -8 8 -23q0 -20 -16 -43.5t-97 -101.5t-125 -111.5t-139 -81.5 q-10 -4 -44.5 23t-39 44t-4.5 40zM502 1137q0 23 10 35t16 22q0 23 36 40t73 17t48 -14t11 -23q0 -29 -39 -65.5t-53 -36.5l-10 -14q0 -43 -27 -43q-23 0 -44 25.5t-21 56.5z" />
<glyph unicode="j" horiz-adv-x="485" d="M-301 -608q0 23 37 132t133 196t237 122q55 131 98.5 256t72 220.5t28.5 99.5q-20 -12 -39 -25q-76 -78 -106.5 -104.5t-60 -43t-44.5 -16.5q-12 1 -10 15q8 41 44 74.5t110.5 104.5t199.5 187q14 16 47 -20q23 -24 23 -55q0 -13 -4 -27q-39 -131 -95.5 -288t-125.5 -347 q25 12 59.5 22.5t102.5 10.5q47 0 82.5 -4t82.5 -17.5t47 -68.5q0 -43 -18 -61.5t-39 -18.5q-43 0 -73.5 35.5t-67.5 51t-76 15.5q-45 0 -78 -12t-57 -25q-63 -139 -134 -243.5t-140.5 -150.5t-115.5 -60.5t-85 -14.5q-16 0 -25.5 17.5t-9.5 42.5zM-238 -592q0 -23 19 -22 q88 0 164 114q55 96 79.5 137t46 67t21.5 30q1 8 -24 6q-106 -14 -206 -138t-100 -194zM471 1016q0 12 6 24q12 20 43 21q39 0 57.5 -25.5t18.5 -58.5q0 -18 -14.5 -53t-44.5 -35q-41 0 -50.5 48t-15.5 79z" />
<glyph unicode="k" horiz-adv-x="835" d="M59 236q0 16 5.5 26t28 39t79.5 80t118.5 122.5t159 276.5t134.5 283q25 47 67.5 106.5t71.5 59.5t29 -72q0 -14 -2 -31.5t-10.5 -100.5t-69 -192.5t-158.5 -208t-147.5 -196.5t-63.5 -142t-14 -55q6 0 11 3.5t83 88.5t171 173t161 88q25 0 41 -14.5t24 -45t8 -55.5 q0 -74 -55 -125t-109.5 -78.5t-54.5 -46.5q0 -16 24.5 -64.5t51.5 -48.5q39 0 125 68t174 139q8 6 17.5 6t9.5 -20q0 -12 -3 -31.5t-17.5 -35t-92.5 -85t-149.5 -121t-120.5 -51.5q-55 0 -88 80t-68 115q-14 8 -27 18l19 21q14 16 106.5 86t96.5 104q0 27 -19 27 q-47 0 -179 -133t-182 -209t-70.5 -90t-39.5 -14q-39 0 -39 46v9q0 76 43 152.5t72 125.5q-4 -2 -8 -2q-16 -14 -41 -33.5t-50.5 -38t-41.5 -18.5q-10 0 -11 15zM500 743q8 2 34.5 35t38.5 62q68 158 68 178q-8 -8 -16 -17q-23 -37 -52 -94z" />
<glyph unicode="l" horiz-adv-x="428" d="M76 199q0 53 31.5 159.5t133 293t172 290.5t240.5 342q20 29 64 29q45 0 65.5 -23.5t20.5 -50.5t-21.5 -77t-40 -117.5t-108.5 -226.5t-188.5 -293t-140.5 -178t-61.5 -57.5t-25.5 -13.5q-12 0 -12 21q0 12 2 27q-2 2 -2 4q-10 -12 -20.5 -58.5t-10.5 -93.5 q0 -51 12.5 -82t40.5 -31q31 0 72 36t164 169q43 35 88 70q2 -8 2 -25q0 -45 -37 -88q-49 -51 -100 -107.5t-109.5 -93t-105.5 -36.5q-61 0 -93 62.5t-32 148.5zM279 479q35 18 71 39q68 70 208 268.5t140 313.5q0 16 -10 16q-22 0 -94 -92q-63 -82 -159.5 -240.5t-126 -221 t-29.5 -83.5z" />
<glyph unicode="m" horiz-adv-x="1185" d="M86 250q-3 12 -3 23q0 41 35 71q44 39 105 84q47 35 85 52.5t63 17.5q47 0 47 -47v-7q-4 -54 10 -55q6 0 25.5 16.5t56.5 50t86 61.5t82 28q35 0 52.5 -28t17.5 -73q0 -12 -3.5 -33.5t-5.5 -42t-2 -44.5q0 -16 2 -37t17 -21q12 0 55 51.5t109.5 99.5t115.5 48 q61 0 62 -88q0 -49 -12.5 -96.5t-12.5 -73.5q0 -29 7 -48.5t26 -19.5q12 0 31.5 13.5t46.5 42.5q33 41 65 81q39 41 86 41q31 0 31 -16q0 -23 -84 -101.5t-111.5 -114.5t-64.5 -60.5t-62 -24.5q-43 0 -67.5 44t-24.5 97q0 16 8.5 55.5t8.5 82.5q0 51 -23 51t-52.5 -32 t-85.5 -99.5t-103.5 -145.5t-61.5 -78t-24.5 48.5t-10.5 119.5q0 70 5 114t8.5 66.5t3.5 47.5q0 55 -25 55q-29 0 -78 -58.5t-178 -225.5t-151 -167q-20 0 -21 68q-4 23 -6 47q0 23 13.5 48.5t71.5 102t58 113.5q0 16 -14 17q-16 0 -58 -31t-86.5 -70t-52.5 -39t-12 19z" />
<glyph unicode="n" horiz-adv-x="821" d="M49 211q-2 8 -2 15q0 40 44 88q52 56 115.5 102.5t101.5 64t63 17.5q47 0 47 -47v-7q-4 -54 10 -55q6 0 25.5 16.5t56.5 50t86 61.5t82 28q35 0 52.5 -28t17.5 -73q0 -12 -4.5 -37.5t-6.5 -53t-2 -66.5q0 -43 5 -65.5t20 -22.5q10 0 49 44t84 75.5t70 31.5q18 0 18 -18 q0 -27 -41 -77.5t-121 -111.5q-43 -33 -98 -101.5t-72 -68.5q-20 0 -30.5 49.5t-10.5 120.5q0 70 5 114t8.5 66.5t3.5 47.5q0 55 -25 55q-29 0 -78 -58.5t-178 -225.5t-151 -167q-20 0 -21 68q-4 23 -6 47q0 23 13.5 48.5t71.5 102t58 113.5q0 16 -14 17q-16 0 -65.5 -36 t-103.5 -86t-65 -50q-8 0 -12 12z" />
<glyph unicode="o" horiz-adv-x="595" d="M54 245q1 -7 5 -7q8 0 26.5 16t44.5 32.5t36 16.5q-2 -6 -2 -12q-14 -20 -30.5 -60.5t-16.5 -103.5q0 -78 42 -128t57 -67.5t38 -17.5q18 0 121.5 36t191.5 126t88 225q0 18 2 33.5t5 30.5q0 35 -22 60.5t-48 25.5q-14 0 -44 -20.5t-30 -70.5q0 -25 10.5 -41t24.5 -18 q-14 -45 -34.5 -95t-59.5 -95t-97.5 -80t-97.5 -35q-25 0 -31 20.5t-6 55.5q0 66 37 141.5t91.5 129.5t103.5 69.5t60 30t58.5 16.5t53.5 26q2 7 2 14q0 29 -27 52q-33 29 -74 29q-76 0 -163.5 -41t-251.5 -174q-27 -20 -43.5 -43t-18.5 -54q-2 -16 -1 -23z" />
<glyph unicode="p" horiz-adv-x="876" d="M-154 -543q0 145 108.5 285.5t221.5 253.5q94 207 128 297t34 121q0 20 -14 20t-43 -22q-80 -76 -128.5 -122t-62 -59.5t-29.5 -9.5q-14 6 -14 19q0 18 17.5 39.5t41.5 39.5q90 96 181 193q43 41 65.5 58.5t42.5 17.5q6 0 42 -16.5t36 -65.5q0 -29 -23.5 -87.5 t-39.5 -101.5q96 90 207.5 178.5t195.5 88.5q57 0 62.5 -40t5.5 -52.5v-24.5q0 -66 -19.5 -121t-55.5 -90t-36 -43q18 6 39 12q47 27 95 65t92 72.5t67 34.5q14 0 20 -18q1 -2 1 -5q0 -20 -38 -56q-42 -42 -119 -113.5t-252 -160.5t-274 -89q-45 0 -58 22.5t-13 42.5 q0 31 17.5 57.5t41 45t60.5 18.5q29 0 49 -8t28 -8q61 0 113.5 77t78 133t25.5 93q0 33 -26 33q-39 0 -135.5 -74t-139.5 -133t-150.5 -282.5t-186 -388.5t-101 -203.5t-70.5 -38.5q-14 0 -44.5 8t-37 50t-6.5 58zM-100 -518q0 -37 16 -37t46.5 52t53.5 118q20 63 57.5 138 t73.5 143q-57 -57 -144 -177t-95 -173.5t-8 -63.5z" />
<glyph unicode="q" horiz-adv-x="780" d="M20 178q0 82 68 158t160 145.5t162.5 106.5t124.5 37q45 0 70.5 -31t25.5 -98q8 4 36.5 23.5t53.5 19.5q16 0 37.5 -29t21.5 -53q0 -14 -76.5 -111.5t-117.5 -193.5q78 39 173 91t175 124q6 6 10 0.5t4 -19.5q0 -31 -7 -49t-51 -55t-143.5 -99.5t-187.5 -115.5 q18 -31 19 -76q0 -156 -160 -385.5t-266 -229.5q-27 0 -27 39q0 74 80 253.5t190 389.5q8 16 0 36l-16 40l76 31q6 20 23.5 64.5t29.5 74.5q-55 -39 -120.5 -82t-120 -68.5t-96.5 -44t-69 -18.5q-43 0 -62.5 42t-19.5 83zM123 166q0 -25 27 -25q51 0 153.5 66.5t164.5 117 t116 95.5q-39 45 -90 45q-33 0 -60.5 -13t-142.5 -87q-53 -33 -102.5 -86.5t-57.5 -78t-8 -34.5zM291 -485q31 0 91 103t85 154.5t25 71.5q0 10 -9.5 34t-9.5 48v19.5t-6 9.5q-14 0 -58.5 -85t-89.5 -189q-40 -92 -40 -140q0 -27 12 -26z" />
<glyph unicode="r" horiz-adv-x="647" d="M61 231q0 -18 13 -18q20 0 60 39t91 95t102.5 92t98.5 57q8 2 14 -12.5t4 -18.5q-14 -37 -80.5 -165t-66.5 -185q0 -66 43 -102t80 -36q76 0 189.5 110t162.5 157t49 80q0 23 -5 34t-15 2q-115 -104 -217.5 -177.5t-143.5 -73.5q-23 0 -22 24q0 29 33.5 94.5t76.5 127 t51.5 78t8.5 38.5q0 23 -9.5 46.5t-33.5 53.5q8 12 14 29.5t5 40.5q0 49 -41.5 64.5t-67.5 15.5q-45 0 -58.5 -68.5t-48.5 -100.5t-103.5 -95.5t-127.5 -122.5q-29 -29 -42.5 -50.5t-13.5 -52.5z" />
<glyph unicode="s" horiz-adv-x="530" d="M39 72q0 20 23.5 36.5t46 24.5t38.5 8q14 0 33 -10t29 -10q8 0 55 26.5t81 112.5t34 199q0 27 -12 26q-8 0 -93.5 -87t-120 -111.5t-47 -30.5t-24.5 -4q-12 6 -12 16q0 12 17 34t65.5 60.5t99.5 104t88 119.5q0 78 57 78q37 0 62.5 -38t38 -84t12.5 -96q0 -49 -8 -94 t-39 -114q14 2 53 16t127 96q6 6 12.5 -3t6.5 -25q0 -35 -92.5 -112t-224.5 -171t-206 -94q-33 0 -54.5 32.5t-33.5 55t-12 39.5z" />
<glyph unicode="t" horiz-adv-x="444" d="M59 174q0 135 86 270.5t174 243.5q-57 -8 -102 -21.5t-86 -25.5q-16 0 -22 43q-1 9 -1 16q0 44 38 56q44 14 239 67q31 27 66.5 58.5t52 51t32.5 71.5q15 46 42 46q3 0 6 -1q25 -6 33 -32t4 -56q0 -20 -14.5 -42t-24 -33.5t-13.5 -18.5t-8 -15q195 35 343.5 61.5 t240.5 26.5q23 0 61.5 23.5t57.5 23.5q12 0 32.5 -7t45 -34.5t24.5 -60.5q0 -8 -7 -29.5t-42 -21.5q-16 0 -49 6t-49 6q-135 -14 -287 -41t-263.5 -49.5t-174.5 -34.5q-170 -231 -249 -370.5t-79 -192.5q0 -37 37 -37q51 0 153 64.5t211 148.5q6 4 17.5 -4t11.5 -31 q0 -18 -14 -27q-59 -47 -184.5 -169.5t-190.5 -122.5q-49 0 -98.5 55t-49.5 139z" />
<glyph unicode="u" horiz-adv-x="921" d="M51 227q0 23 30 67t91 101q59 55 111.5 101.5t93.5 46.5q33 0 42 -36t9 -61q0 -47 -14.5 -89t-56.5 -107.5t-42 -110.5q0 -23 17 -22q29 0 117 94t182 195.5t143 101.5q45 0 76 -50t31 -69q0 -6 -33 -54t-42 -79t-24.5 -75t-15.5 -52q6 -2 14 -2q18 8 51 32.5t146 121.5 q27 8 53 16q1 -7 1 -13q0 -39 -40 -79q-96 -82 -160.5 -143.5t-105.5 -61.5q-39 0 -65.5 41t-26.5 88q0 20 19.5 70.5t19.5 79.5q0 18 -13 18q-29 0 -124 -93t-149 -145.5t-72.5 -60.5t-39.5 -8q-45 0 -74.5 46t-29.5 103q0 45 15.5 68.5t21.5 41t6 25.5q0 18 -18 19 q-31 0 -70 -42t-59 -42q-14 0 -15 18z" />
<glyph unicode="v" horiz-adv-x="806" d="M72 244q0 -12 12 -13q41 0 97.5 61.5t88 88.5t52.5 27q14 0 14 -21q0 -37 -41 -123t-57.5 -126t-16.5 -81q0 -47 22.5 -86t51.5 -39q41 0 158.5 135.5t123 138.5t11.5 6l14 7q12 -115 82 -115q82 0 192.5 103.5t110.5 122.5q0 10 -18 10q-20 0 -61.5 -33t-110.5 -88 q-66 -45 -101 -45q-23 0 -35 20.5t-12 49.5q0 35 22.5 56.5t53.5 65.5t51 72q57 23 58 60q0 31 -36 42t-63 11q-80 0 -114.5 -68.5t-34.5 -160.5q0 -10 -79 -85t-132 -120q0 53 61.5 159.5t61.5 149.5t-32 72.5t-71 29.5q-51 0 -99 -35.5t-130 -115.5q-47 -47 -70.5 -83 t-23.5 -50z" />
<glyph unicode="w" horiz-adv-x="997" d="M98 299q0 -27 25 -27q14 0 45 33t86 62q10 -2 22 -5q-47 -98 -72.5 -157.5t-25.5 -114.5q0 -20 9.5 -60t50.5 -40q51 0 131 76.5t123 136t47 61.5t6 4q6 0 3 -21.5t-5 -47.5q0 -86 29.5 -141.5t84.5 -55.5q47 0 105.5 41t122 121t106.5 162t43 137q0 14 -8 36.5t-25.5 36 t-39.5 13.5q-33 0 -52.5 -19.5t-19.5 -42.5q0 -12 8 -40.5t8 -43.5q0 -8 -15.5 -58t-99 -133t-131.5 -83q-27 0 -20 35q12 94 40 157.5t54 122.5q0 25 -26.5 66t-49.5 41q-20 0 -38.5 -36t-32.5 -66q-104 -143 -179 -223.5t-100 -80.5q-12 0 -12 21q0 16 7 39.5t81 134.5 t74 156q0 27 -14.5 61.5t-36.5 34.5q-20 0 -44 -33t-49 -67q-49 -33 -98 -67t-94 -79q-23 -25 -23 -47z" />
<glyph unicode="x" horiz-adv-x="704" d="M47 18q0 39 135 145.5t162 137.5t46.5 86t19.5 72q0 25 -17 24q-20 0 -79.5 -49t-107.5 -89t-77 -77q-16 -23 -31 -22q-20 0 -20 33q0 29 152.5 176t261.5 147q53 0 53 -70q0 -43 -21 -104q70 51 149 105.5t132 76.5q12 4 24.5 -19.5t-0.5 -31.5q-145 -80 -230 -137 t-115.5 -161.5t-30.5 -156.5q0 -33 20 -32q33 0 179.5 121.5t156.5 121.5q12 0 12 -20t-8 -42t-36.5 -43.5t-179.5 -144t-198 -122.5q-31 0 -57.5 33.5t-26.5 82.5q0 27 11.5 74t23.5 92q-25 -18 -49 -35q-43 -39 -73.5 -65.5t-63.5 -90t-62 -63.5q-14 0 -34.5 13.5 t-20.5 33.5z" />
<glyph unicode="y" horiz-adv-x="866" d="M90 -612q25 236 166 364q166 100 334 201q37 80 80 179t63 185l-106 -43q-10 -4 -192.5 -113.5t-227.5 -109.5q-59 0 -60 92q0 25 21.5 77t46.5 106q-10 -11 -20 -21q-31 -45 -60 -45q-20 0 -20 23q0 39 63.5 92t161.5 151q10 10 42 -2t28 -39q-8 -31 -68.5 -138 t-60.5 -130q0 -18 20 -18q12 0 77.5 22.5t204 142t183.5 145.5t59 26q43 0 43 -97q0 -37 -7 -92t-16 -81.5t-45 -112.5t-57.5 -128t-42.5 -77q10 2 31 4t33 2q74 0 129 -31t55 -112q0 -45 -6 -64.5t-16 -19.5q-6 0 -10.5 4t-31 45t-119.5 75q-64 24 -87 24q-11 0 -14 -5 q-90 -176 -188.5 -291t-190.5 -172t-118 -65.5t-50 -8.5q-12 0 -19.5 19.5t-7.5 36.5zM168 -498q0 -41 22 -41q6 0 75 41t152 132.5t136 238.5l-82 -12q-197 -76 -244 -182.5t-53 -134t-6 -42.5z" />
<glyph unicode="z" horiz-adv-x="866" d="M-123 -614q25 233 223 364q233 102 467 203q39 80 81 176t63 188q-2 0 -9.5 21.5t-29.5 21.5q-16 0 -42 -14t-53.5 -36.5t-75.5 -38t-83 -15.5t-35 20q0 12 11.5 29t47 46.5t75.5 66.5t40 69q0 21 -14 35q-16 16 -43 17q-72 0 -195 -115t-155.5 -145.5t-53.5 -30.5 q-16 0 -16 16q0 37 49 77t96 89t94.5 97t129 82t149.5 34q43 0 63.5 -18.5t20.5 -65.5q0 -63 -38 -93t-77 -48q6 4 18.5 10t42 15.5t64.5 32t64.5 41t44.5 18.5q43 0 43 -97q0 -37 -7.5 -92t-14.5 -76.5t-44 -111.5t-55 -125t-47 -86q10 2 30.5 4t32.5 2q74 0 129.5 -31 t55.5 -112q0 -45 -6.5 -64.5t-16.5 -19.5q-6 0 -10 4t-30.5 45t-120.5 75q-64 24 -86 24q-11 0 -13 -5q-88 -168 -284.5 -332t-281.5 -172t-117 -12t-50 -4q-33 0 -31 37zM-37 -461q0 -39 39 -39q88 0 277.5 104.5t248.5 268.5q-6 4 -16 5t-18 1q-123 0 -286 -61.5 t-198 -142.5t-41 -100t-6 -36z" />
<glyph unicode="{" horiz-adv-x="397" d="M31 -109q0 -41 17.5 -65.5t60.5 -24.5q8 0 32 4l49 136q-49 0 -67.5 10t-18.5 39q0 18 11 55l104 354q6 20 8 45t2 56q0 25 -1 42t-3 31q29 39 61.5 90.5t51.5 108.5l119 381q20 70 52.5 105t106.5 45l37 116q-96 -16 -154.5 -94t-88.5 -180l-117 -381 q-16 -51 -69.5 -106.5t-106.5 -104.5q20 -27 40.5 -60.5t20.5 -76.5q0 -8 -4 -25l-121 -381q-14 -47 -18 -70.5t-4 -48.5z" />
<glyph unicode="|" horiz-adv-x="2023" d="M729 -285q0 86 13.5 201t113.5 577t100 652q0 315 45 315q29 0 29 -145q0 -55 -20.5 -253t-64.5 -367t-80 -309t-36 -304q-20 -227 -42.5 -346t-41.5 -119q-16 0 -16 98z" />
<glyph unicode="}" horiz-adv-x="380" d="M0 -217q98 16 150.5 97t87.5 194l122 375q14 49 68.5 104t110.5 104q-23 27 -44.5 62t-21.5 78v18q4 8 4 10l123 392q10 31 17.5 65.5t7.5 63.5q0 41 -17.5 63.5t-60.5 22.5l-35 -5l-53 -139q90 0 90 -55q0 -18 -10 -53l-111 -365q-10 -37 -10 -86q0 -31 2 -52.5t6 -37.5 q-31 -41 -64.5 -92t-52.5 -109l-119 -375q-23 -74 -51 -107.5t-100 -43.5z" />
<glyph unicode="~" horiz-adv-x="688" d="M209 711q0 -16 12 -17q19 1 66 56q14 18 35.5 26t46.5 8q23 0 90 -15t92 -15q51 0 82 32.5t48 69.5t17 57q0 29 -20 29q-25 0 -52.5 -42t-55 -57.5t-54.5 -15.5q-33 0 -97.5 28t-84.5 28q-27 0 -54.5 -31t-49 -74t-21.5 -67z" />
<glyph unicode="&#xa1;" horiz-adv-x="587" d="M100 106q0 -20 14.5 -54t35 -57.5t43.5 -23.5q14 0 27 14.5t48 104.5t184.5 377t171 339t28.5 78.5t7 53.5q1 41 -24 74q-47 63 -80 63q-29 0 -38 -32.5t-25.5 -127t-70.5 -214t-149.5 -296t-114 -218.5t-38 -53t-19.5 -28zM586 1260q0 18 14 30.5t27.5 77t38.5 64.5 q23 0 49 -26t43 -40q25 -29 24 -63q0 -33 -19.5 -65t-35.5 -56q-20 -25 -51 -25q-33 0 -61.5 35t-28.5 68z" />
<glyph unicode="&#xa2;" d="M166 463q0 115 79 251t174 233t181 139t168 42q28 0 53 -6q31 -6 49.5 -37.5t22.5 -72.5q8 -68 -42 -144.5t-108 -76.5q-25 0 -40 13t-15 36q0 31 41 106.5t41 93.5q0 16 -16 17q-8 0 -63.5 -17.5t-211 -182.5t-185.5 -242.5t-30 -133.5q0 -76 33 -127t106 -51 q31 0 69 11.5t103.5 46t169 129t188.5 195.5t105 101q25 0 25 -49q0 -61 -123 -180t-282.5 -222.5t-276.5 -103.5q-53 0 -94 19.5t-81 75t-40 137.5zM254 -57q14 35 60 157.5t126 320t162 402.5t154 410q-14 6 -15 27q0 29 26 58t46 17t21 -45q0 -45 -29 -57 q-92 -195 -141.5 -306.5t-88 -221t-106.5 -299t-113 -349.5z" />
<glyph unicode="&#xa3;" horiz-adv-x="1452" d="M-10 10q0 12 66.5 108.5t245.5 172.5t427 76q14 20 29.5 46.5t17.5 49.5q-27 -6 -53 -10q-18 -8 -55 -25.5t-54 -17.5q-20 0 -20 10q0 16 43 44t95 50.5t102 42.5q29 47 40 68.5t17 56.5q-20 -6 -39 -12q-117 -80 -154 -84q-18 0 -46.5 -24.5t-39.5 -24.5q-20 0 -37 47 q-4 20 -4 26q0 33 20.5 57.5t47.5 34t49 9.5q35 0 45 -21q8 -16 112.5 45.5t127 102.5t83 150.5t148.5 241.5t133 160.5t70 28.5q43 0 43 -67q0 -92 -78 -225.5t-205 -219.5q-39 -59 -83 -136t-60 -150q23 10 74 30.5t86 20.5q35 4 79 24.5t58 20.5q23 0 37 -26.5t26 -102.5 q6 -35 7 -56q0 -51 -27 -51q-16 0 -67.5 31t-67.5 31q-59 0 -112.5 -1t-127.5 -20l-96 -176q147 -33 225 -59.5t123 -81.5q68 -68 105.5 -111t37.5 -104q0 -49 -24 -49q-6 0 -16.5 10t-10.5 29q0 115 -160.5 186.5t-343.5 71.5q-31 -53 -59 -105q-84 -121 -218 -210 t-327 -89q-76 0 -155.5 61.5t-79.5 114.5zM84 -35q0 -33 34 -48t75 -15q131 0 290.5 144t155.5 175q-4 6 -39 6q-117 0 -282 -57.5t-222 -163.5q-12 -25 -12 -41zM1208 1018q57 41 93 82t65 102q14 27 27.5 53.5t19.5 57.5q4 16 1 22t-5 6q-20 0 -81.5 -107.5t-119.5 -215.5 z" />
<glyph unicode="&#xa9;" horiz-adv-x="1165" d="M119 375q0 293 266 596t600 303q168 0 249 -86t81 -230q0 -293 -266 -596t-600 -303q-168 0 -249 86t-81 230zM166 399q0 -133 73.5 -211.5t229.5 -78.5q307 0 555 279.5t248 547.5q0 133 -74.5 212t-230.5 79q-309 0 -555 -279.5t-246 -548.5zM328 362q0 -37 14 -75.5 t41 -57t61 -18.5q41 0 95 25q98 59 120 69q86 49 164 115q12 18 27 39q-16 2 -99 -50.5t-144.5 -83t-123.5 -30.5q-70 0 -69 76q0 47 26.5 115.5t99 197.5t150.5 209t121 80q23 0 23 -31q-1 -18 -13 -47q-18 -43 -33.5 -71.5t-33 -49t-36 -36t-37.5 -34t-19 -38.5 q0 -12 7 -20.5t23 -8.5q12 0 26.5 8t25 35t42 75t57 102t25.5 124q0 47 -43 47q-63 0 -174.5 -93t-182.5 -221t-105.5 -204t-34.5 -148z" />
<glyph unicode="&#xab;" horiz-adv-x="1224" d="M334 801l125 121q113 102 193.5 168.5t191.5 142.5q-16 14 21.5 42t97.5 28q29 0 22 -21q-10 -47 -49 -59q-127 -74 -222.5 -150t-197.5 -182l-96 -111q6 -43 17.5 -88t22.5 -92t103 -210t92 -181q0 -6 -10 -2t-24 16l-46 45l-83 19q-31 125 -76 268q-18 72 -42 136.5 t-40 109.5zM635 801l129 121q102 90 195.5 166.5t185.5 144.5q-16 14 21.5 42t97.5 28q31 0 24 -21q-10 -47 -49 -59q-131 -74 -224 -148t-196 -184l-96 -111q6 -43 17.5 -88t22.5 -92t103 -210t92 -181q0 -6 -10 -2t-24 16l-43 45l-88 19q-18 90 -39 164 q-23 68 -45.5 144.5t-73.5 205.5z" />
<glyph unicode="&#xad;" horiz-adv-x="798" d="M256 399q0 14 29 33t47 19q92 0 137 18t76 18q84 0 118.5 -9t34.5 -27q0 -23 -51 -49.5t-72 -20.5q-55 16 -86 16q-23 0 -51 -15t-63 -15q-68 0 -93.5 8t-25.5 24z" />
<glyph unicode="&#xae;" horiz-adv-x="1165" d="M119 375q0 293 266 596t600 303q168 0 249 -86t81 -230q0 -293 -266 -596t-600 -303q-168 0 -249 86t-81 230zM166 399q0 -133 73.5 -211.5t229.5 -78.5q307 0 555 279.5t248 547.5q0 133 -74.5 212t-230.5 79q-309 0 -555 -279.5t-246 -548.5zM348 315q0 25 13.5 58 t41 96t86 167.5t97.5 175.5t39 89v25q0 6 8 12q8 4 26.5 -1t24.5 -16.5t6 -25.5q0 -10 -68.5 -143.5t-133 -262.5t-77 -160.5t-12.5 -41.5q0 -29 -4 -33q-12 0 -22.5 2t-17.5 18.5t-7 40.5zM442 924q-10 18 8.5 36.5t70.5 33t138 29.5t154 15q23 0 73 2t75 2 q102 0 157.5 -22.5t55.5 -91.5q0 -96 -132 -121q-124 -17 -247 -33q-78 -20 -162 -36.5t-164 -32.5q43 -47 70.5 -76t73.5 -76t108.5 -110.5t100.5 -99.5t38 -52q0 -27 -20 -41q-10 -8 -29.5 -2t-24.5 18l-227 305q-14 20 -60 74.5t-42 61.5l6 16l141 51q55 18 114.5 37.5 t140.5 29t146.5 34t65.5 51.5q0 59 -266 59h-51.5t-55.5 2q-55 0 -97 -4t-60.5 -14.5t-28.5 -28.5t-22.5 -25.5t-24.5 -7.5q-16 0 -23 17z" />
<glyph unicode="&#xb0;" horiz-adv-x="2023" d="M684 1200q0 -96 55.5 -162.5t153.5 -66.5q29 0 99.5 15t131 99t60.5 183q0 96 -54.5 162.5t-152.5 66.5q-28 0 -59 -6q-113 -25 -173.5 -108t-60.5 -183zM778 1180q0 66 45 117t123 51q63 0 97 -38t34 -91q0 -66 -45 -117t-123 -51q-63 0 -97 37.5t-34 91.5z" />
<glyph unicode="&#xb4;" horiz-adv-x="616" d="M260 907q27 82 64 123q53 49 106 100q43 66 69.5 105t47.5 78q-2 29 32.5 47t75.5 18q47 0 47 -30q0 -27 -3 -43.5t-13 -30.5q-86 -72 -147.5 -135.5t-105.5 -110.5t-93 -110l-66 36z" />
<glyph unicode="&#xbb;" horiz-adv-x="1243" d="M225 203h11q20 12 36 20l70 45l98 19l256 268q70 74 122 127t122 119l-49 121q-39 88 -75 153.5t-97 157.5q8 23 -21.5 44t-62.5 21q-23 0 -26 -16t-3 -27q0 -18 10 -32q82 -78 126 -151t61.5 -137.5t26 -99t10.5 -55.5q-41 -51 -78 -92t-80 -89t-250 -219t-207 -177z M526 203h11q20 12 36 20l72 45l100 19q63 72 126 136t135.5 141t118.5 123t118 114l-47 121q-39 88 -75 153.5t-97 157.5q8 23 -21.5 44t-60.5 21q-25 0 -28 -18t-3 -29q0 -18 43 -63t91.5 -123t74.5 -174q12 -55 25 -111q-31 -39 -69 -81t-84 -93t-256 -224t-210 -179z" />
<glyph unicode="&#xbf;" horiz-adv-x="1026" d="M123 150q0 119 134 190.5t405.5 173.5t334.5 168q31 88 47.5 138t34.5 50t40 -41t33 -71.5t11 -55.5q0 -66 -50 -108.5t-137 -98t-300 -136t-318.5 -136t-105.5 -127.5q0 -20 10 -39.5t66 -19.5q66 0 267.5 42t258.5 42h25q27 -2 49 56.5t55 58.5q10 0 44 -11.5t34 -68.5 q0 -55 -34 -117t-77 -62q-20 0 -71.5 12.5t-79.5 12.5q-70 0 -227.5 -17.5t-202.5 -17.5q-92 0 -149.5 22.5t-77 72t-19.5 88.5zM987 1110q0 -35 19.5 -60.5t60.5 -31.5q57 -8 92 26.5t35 83.5q0 35 -19.5 61t-60.5 34q-57 8 -92 -27t-35 -86z" />
<glyph unicode="&#xc0;" horiz-adv-x="1007" d="M41 162q0 -82 35 -136.5t117 -80.5q57 -18 155 81t168 195t185.5 268.5t143 216.5t73 103t75.5 98q10 23 21.5 46.5t11.5 50.5q0 23 -25 22q-29 0 -70.5 -31.5t-63 -104.5t-94.5 -168t-142 -185q-82 -117 -198 -260.5t-156.5 -177t-63.5 -33.5q-29 0 -29 55q0 98 78 303 t149.5 319.5t77.5 120.5q8 0 17 2q31 39 64.5 82t70.5 90q29 27 57 54q63 76 70 75q-4 -12 -7 -20t-7 -15.5t-4 -9.5q37 53 98 107.5t123 70.5q8 2 22.5 -4t18.5 -14q8 -18 -2.5 -39.5t-13.5 -31t-20.5 -26t-27.5 -24.5q-27 -20 -26 -55q0 -37 34 -43q27 -6 35 7t32 85 t30 102.5t6 57.5q0 35 -15.5 59.5t-54.5 34.5q-80 23 -301 -168.5t-323.5 -355.5t-171 -289t-110.5 -234.5t-42 -199.5zM266 1464l142 -250l55 39l-123 238zM678 221q0 -70 41 -144.5t96 -74.5q29 0 111 63.5t138 114.5t62.5 77t6.5 36q0 16 -11 16q-18 0 -69.5 -50 t-107.5 -104.5t-99 -54.5q-29 0 -38 29t-9 80v32.5t2 32.5q0 29 75 228.5t130 365.5q20 68 20 101q0 29 -16 28q-12 0 -90 -100t-154 -316t-88 -360z" />
<glyph unicode="&#xc3;" horiz-adv-x="1007" d="M41 162q0 -82 35 -136.5t117 -80.5q57 -18 155 81t168 195t185.5 268.5t143 216.5t73 103t75.5 98q10 23 21.5 46.5t11.5 50.5q0 23 -25 22q-29 0 -70.5 -31.5t-63 -104.5t-94.5 -168t-142 -185q-82 -117 -198 -260.5t-156.5 -177t-63.5 -33.5q-27 0 -27 47 q0 86 77 286.5t160 362.5t200 292.5t223 157.5q20 4 25.5 -17t5.5 -58q0 -39 -9.5 -58.5t-24 -34t-35 -30t-20.5 -53.5q0 -37 33 -43q27 -6 35 7t30.5 83.5t30 103.5t7.5 59q0 37 -15.5 61.5t-43 32t-36.5 7.5q-90 0 -232 -122t-238.5 -275.5t-165 -278.5t-110.5 -234.5 t-42 -199.5zM600 1260q0 -18 12 -19q19 0 66 59q14 18 35.5 26.5t46.5 8.5q29 0 92 -16t92 -16q51 0 83 34.5t47.5 67.5t15.5 57q0 27 -21 27q-23 0 -49.5 -40t-54 -55.5t-56.5 -15.5t-96.5 27t-83.5 27q-31 0 -80 -55.5t-49 -116.5zM678 221q0 -70 41 -144.5t96 -74.5 q29 0 111 63.5t138 114.5t62.5 77t6.5 36q0 16 -11 16q-18 0 -69.5 -50t-107.5 -104.5t-99 -54.5q-29 0 -38 29t-9 80v32.5t2 32.5q0 29 75 228.5t130 365.5q20 68 20 101q0 29 -16 28q-12 0 -90 -100t-154 -316t-88 -360z" />
<glyph unicode="&#xc5;" horiz-adv-x="1007" d="M41 162q0 -82 35 -136.5t117 -80.5q57 -18 155 81t168 195t185.5 268.5t143 216.5t73 103t75.5 98q10 23 21.5 46.5t11.5 50.5q0 23 -25 22q-29 0 -70.5 -31.5t-63 -104.5t-94.5 -168t-142 -185q-82 -117 -198 -260.5t-156.5 -177t-63.5 -33.5q-29 0 -29 55q0 98 78 303 t149.5 319.5t77.5 120.5q8 0 17 2q31 39 64.5 82t70.5 90q29 27 57 54q63 76 70 75q-4 -12 -7 -20t-7 -15.5t-4 -9.5q37 53 98 107.5t123 70.5q8 2 22.5 -4t18.5 -14q8 -18 -2.5 -39.5t-13.5 -31t-20.5 -26t-27.5 -24.5q-27 -20 -26 -55q0 -37 34 -43q27 -6 35 7t32 85 t30 102.5t6 57.5q0 35 -15.5 59.5t-54.5 34.5q-80 23 -301 -168.5t-323.5 -355.5t-171 -289t-110.5 -234.5t-42 -199.5zM678 221q0 -70 41 -144.5t96 -74.5q29 0 111 63.5t138 114.5t62.5 77t6.5 36q0 16 -11 16q-18 0 -69.5 -50t-107.5 -104.5t-99 -54.5q-29 0 -38 29 t-9 80v32.5t2 32.5q0 29 75 228.5t130 365.5q20 68 20 101q0 29 -16 28q-12 0 -90 -100t-154 -316t-88 -360z" />
<glyph unicode="&#xcc;" horiz-adv-x="659" d="M-162 -580q0 193 184.5 396.5t366.5 203.5q6 0 39 81t49.5 116t16.5 55l-62 -20q-59 -45 -102 -78t-138.5 -102.5t-134.5 -69.5q-35 0 -55 47q-12 35 -12 68q0 61 37 104q80 98 109.5 131t97 84t168 90t157.5 39q16 0 23.5 -6t4.5 -16.5t0 -18.5t7 -18q43 29 57 29 q6 0 10.5 -13.5t10.5 -25t6 -27.5q0 -10 -4 -24.5t-22.5 -64.5t-65.5 -158.5t-101 -209.5q20 -10 41 -24.5t21 -44.5q0 -23 -17.5 -48.5t-35.5 -25.5q-8 0 -26.5 11t-31 13.5t-26.5 4.5q-113 -199 -251.5 -353.5t-193.5 -185.5t-96 -31q-16 0 -21.5 17.5t-7.5 36t-2 38.5z M-104 -487q0 -31 30 -31q12 0 55.5 15.5t118 102.5t148.5 189q20 25 35.5 50.5t15.5 35.5q0 14 -20 14q-12 0 -27.5 -3t-93.5 -37.5t-170 -151.5t-92 -184zM102 109q10 -14 84 32.5t125 82.5t125 110q29 37 60 74q-10 6 -23 6q-35 0 -78 -28.5t-133 -98.5 q-63 -51 -116.5 -105.5t-43.5 -72.5z" />
<glyph unicode="&#xd5;" horiz-adv-x="1081" d="M25 174q0 -129 66.5 -167t105.5 -48t75 -10q102 0 201.5 70.5t175.5 161.5t210 278.5t205 335t71 231.5q0 53 -24 86t-58.5 41t-56 10t-40.5 2q-92 0 -177 -54t-163.5 -151.5t-142 -211t-63.5 -173.5q0 -45 41 -45q14 0 39.5 7.5t45 33t11.5 58.5q-10 27 -19 55 q0 27 23.5 74t88.5 141t176.5 174t178.5 80q53 0 54 -59q0 -61 -60.5 -182t-231.5 -366t-319.5 -384t-230.5 -139q-76 0 -76 118q0 84 36 193.5t109.5 241t144.5 240t145.5 179t146.5 70.5q23 0 37 20.5t14 47.5q0 6 -5 19t-26 13q-23 0 -63 -20q-178 -111 -411.5 -434.5 t-233.5 -536.5zM600 1260q0 -18 12 -19q19 0 66 59q14 18 35.5 26.5t46.5 8.5q29 0 92 -16t92 -16q51 0 83 34.5t47.5 67.5t15.5 57q0 27 -21 27q-23 0 -49.5 -40t-54 -55.5t-56.5 -15.5t-96.5 27t-83.5 27q-31 0 -80 -55.5t-49 -116.5z" />
<glyph unicode="&#xd8;" d="M0 -336q41 55 84 109q109 182 232.5 437t181 414.5t108.5 303t129 295.5q59 111 87 179t28 93q-23 -14 -45 -29q-57 -78 -152.5 -282.5t-154 -409.5t-150.5 -373t-174 -331.5t-128 -273t-46 -132.5zM29 307q0 -110 45 -198q31 -59 72.5 -87t91.5 -28q109 0 239.5 115.5 t247.5 266t181.5 279.5t64.5 254q0 66 -17.5 121t-55.5 108.5t-78 76t-85 22.5q-129 0 -258 -127t-224 -242.5t-159.5 -269.5t-64.5 -291zM102 180q0 111 101.5 349.5t200 354t213 184.5t180.5 69q35 0 44 -35t9 -86q0 -109 -53.5 -234t-144.5 -260t-252.5 -270t-245.5 -135 q-36 0 -48 33q-4 16 -4 30z" />
<glyph unicode="&#xe0;" horiz-adv-x="688" d="M-16 51q0 16 23.5 120.5t173 253t286.5 148.5q23 0 52.5 -7t55 -34.5t25.5 -60.5q0 -8 -7 -25.5t-42 -17.5q-43 4 -66 4q-12 0 -94 -21.5t-129 -49t-126 -122t-79 -110.5q0 -31 49 -31h13q8 4 78.5 37t180.5 151t204 222q16 14 36.5 25.5t36.5 5.5q27 -14 27 -52 q0 -20 -7 -36.5t-33 -56.5t-62.5 -117.5t-36.5 -114.5q0 -27 20 -27q25 0 80 43t114.5 102.5t71.5 59.5q2 -14 7 -27q-12 -59 -84 -134t-142.5 -124t-107.5 -49q-27 0 -39 24.5t-12 61.5q0 51 13 109.5t36 146.5q-4 0 -16.5 -15.5t-34.5 -45.5q-94 -98 -223.5 -196.5 t-194.5 -98.5q-47 0 -47 59zM250 881q84 -92 171 -129t140 -49.5t117 -12.5l6 60q-66 10 -109 24t-105 51t-105 76t-86 103z" />
<glyph unicode="&#xe1;" horiz-adv-x="610" d="M-16 45q0 14 22.5 107.5t153.5 224.5t254 131q23 0 41 -6q29 -4 52 -30t23 -56q0 -6 -6 -21.5t-35 -15.5q-39 4 -59 4q-12 0 -81.5 -18.5t-117 -46t-115 -108.5t-67.5 -95q0 -18 23.5 -24.5t42.5 -0.5q125 59 220 163t177 196q18 16 34.5 25t33.5 3q23 -12 22 -45 q0 -20 -4 -31.5t-14 -31.5q-37 -53 -69 -122t-32 -104q0 -23 17 -22q23 0 70.5 38t102 92t64.5 54q-2 -23 -2 -43q-16 -41 -77.5 -104.5t-121 -105.5t-94.5 -42q-43 0 -43 74q0 41 13.5 98.5t29.5 122.5q-4 -2 -15 -15.5t-30 -37.5q-80 -84 -196.5 -171t-175.5 -87 q-41 0 -41 51zM215 612l4 52q98 14 178 55t124 75.5t93 92.5l4 -111q-43 -41 -91 -71.5t-102 -52t-102.5 -31t-107.5 -9.5z" />
<glyph unicode="&#xe2;" horiz-adv-x="688" d="M-16 51q0 16 23.5 120.5t173 253t286.5 148.5q23 0 52.5 -7t55 -34.5t25.5 -60.5q0 -8 -7 -25.5t-42 -17.5q-43 4 -66 4q-12 0 -94 -21.5t-129 -49t-126 -122t-79 -110.5q0 -31 49 -31h13q8 4 78.5 37t180.5 151t204 222q16 14 36.5 25.5t36.5 5.5q27 -14 27 -52 q0 -20 -7 -36.5t-33 -56.5t-62.5 -117.5t-36.5 -114.5q0 -27 20 -27q25 0 80 43t114.5 102.5t71.5 59.5q2 -14 7 -27q-12 -59 -84 -134t-142.5 -124t-107.5 -49q-27 0 -39 24.5t-12 61.5q0 51 13 109.5t36 146.5q-4 0 -16.5 -15.5t-34.5 -45.5q-94 -98 -223.5 -196.5 t-194.5 -98.5q-47 0 -47 59zM240 690l6 60q78 55 134 113.5t84 91t60 81.5q8 -78 70 -129q39 -39 88 -47l-33 -123q-41 16 -67.5 38t-44 53.5t-24.5 52t-7 47.5q-16 -43 -36.5 -73t-77 -86t-152.5 -79z" />
<glyph unicode="&#xe3;" horiz-adv-x="688" d="M-16 51q0 16 23.5 120.5t173 253t286.5 148.5q23 0 52.5 -7t55 -34.5t25.5 -60.5q0 -8 -7 -25.5t-42 -17.5q-43 4 -66 4q-12 0 -94 -21.5t-129 -49t-126 -122t-79 -110.5q0 -31 49 -31h13q8 4 78.5 37t180.5 151t204 222q16 14 36.5 25.5t36.5 5.5q27 -14 27 -52 q0 -20 -7 -36.5t-33 -56.5t-62.5 -117.5t-36.5 -114.5q0 -27 20 -27q25 0 80 43t114.5 102.5t71.5 59.5q2 -14 7 -27q-12 -59 -84 -134t-142.5 -124t-107.5 -49q-27 0 -39 24.5t-12 61.5q0 51 13 109.5t36 146.5q-4 0 -16.5 -15.5t-34.5 -45.5q-94 -98 -223.5 -196.5 t-194.5 -98.5q-47 0 -47 59zM209 711q0 -16 12 -17q19 1 66 56q14 18 35.5 26t46.5 8q23 0 90 -15t92 -15q51 0 82 32.5t48 69.5t17 57q0 29 -20 29q-25 0 -52.5 -42t-55 -57.5t-54.5 -15.5q-33 0 -97.5 28t-84.5 28q-27 0 -54.5 -31t-49 -74t-21.5 -67z" />
<glyph unicode="&#xe4;" horiz-adv-x="688" d="M-16 51q0 16 23.5 120.5t173 253t286.5 148.5q23 0 52.5 -7t55 -34.5t25.5 -60.5q0 -8 -7 -25.5t-42 -17.5q-43 4 -66 4q-12 0 -94 -21.5t-129 -49t-126 -122t-79 -110.5q0 -31 49 -31h13q8 4 78.5 37t180.5 151t204 222q16 14 36.5 25.5t36.5 5.5q27 -14 27 -52 q0 -20 -7 -36.5t-33 -56.5t-62.5 -117.5t-36.5 -114.5q0 -27 20 -27q25 0 80 43t114.5 102.5t71.5 59.5q2 -14 7 -27q-12 -59 -84 -134t-142.5 -124t-107.5 -49q-27 0 -39 24.5t-12 61.5q0 51 13 109.5t36 146.5q-4 0 -16.5 -15.5t-34.5 -45.5q-94 -98 -223.5 -196.5 t-194.5 -98.5q-47 0 -47 59zM268 784q1 -55 56 -69q16 -4 24 -4q33 0 53.5 24.5t20.5 55.5q0 55 -36 64t-44 9q-33 0 -53.5 -24.5t-20.5 -55.5zM481 831q0 -23 13.5 -46t56.5 -23q41 0 62.5 24.5t21.5 61.5q0 23 -13.5 46.5t-56.5 23.5q-41 0 -62.5 -25t-21.5 -62z" />
<glyph unicode="&#xe5;" horiz-adv-x="647" d="M-16 51q0 16 23.5 120.5t173 253t286.5 148.5q23 0 52.5 -7t55 -34.5t25.5 -60.5q0 -8 -7 -25.5t-42 -17.5q-43 4 -66 4q-12 0 -94 -21.5t-129 -49t-126 -122t-79 -110.5q0 -31 49 -31h13q8 4 78.5 37t180.5 151t204 222q16 14 36.5 25.5t36.5 5.5q27 -14 27 -52 q0 -20 -7 -36.5t-37 -62.5t-55.5 -122t-25.5 -143q0 -68 28.5 -105.5t28.5 -62.5q0 -18 -13 -26.5t-32 -8.5q-12 0 -34.5 9.5t-42 70.5t-19.5 141q0 111 27 207q-4 0 -16.5 -15.5t-34.5 -45.5q-94 -98 -223.5 -196.5t-194.5 -98.5q-47 0 -47 59z" />
<glyph unicode="&#xe7;" horiz-adv-x="532" d="M6 143q0 78 59.5 169t165 183.5t230.5 92.5q10 0 22.5 -2t18.5 -2q25 -6 38 -26.5t17 -49.5q8 -47 -31 -98.5t-82 -51.5q-18 0 -30 11q-8 6 3 35.5t11 39.5q0 16 -18 17q-12 0 -57.5 -12.5t-111 -78t-88 -115.5t-31.5 -81t-9 -57q0 -63 59 -64q41 0 120 37t181 113 t145.5 117.5t61.5 41.5q16 0 16 -26q0 -31 -80.5 -112t-198.5 -167t-222 -86q-45 0 -82 17.5t-72 58.5t-35 96zM147 -264q0 29 74 31t84 32q10 35 -43 85t-45 83q2 10 10.5 21.5t16.5 21.5q12 14 26 15q33 0 66 -61.5t33 -117.5q0 -16 -6.5 -43.5t-35 -64.5t-56 -42 t-52 -58.5t-35.5 -53.5q-12 0 -24.5 38t-12.5 114z" />
<glyph unicode="&#xe8;" horiz-adv-x="512" d="M0 147q0 14 12.5 35t42 32t45.5 17q104 63 208 131t104 103q0 14 -31 14q-68 0 -131.5 -76.5t-90 -135t-35.5 -91.5t-9 -59q0 -31 12 -47.5t45 -16.5q41 0 120 37t181 113t145.5 119t61.5 43q12 0 12 -19q0 -31 -18 -45q-182 -182 -311.5 -264t-200.5 -82 q-86 0 -110.5 67.5t-24.5 118.5q0 94 50 187.5t119.5 147.5t124 78t107.5 24q20 -1 45 -7q29 -4 49.5 -26.5t18.5 -48.5q-10 -68 -227.5 -215.5t-293.5 -147.5q-20 0 -20 14zM250 881q84 -92 171 -129t140 -49.5t117 -12.5l6 60q-109 14 -192.5 63t-126.5 90t-84 109z" />
<glyph unicode="&#xe9;" horiz-adv-x="512" d="M0 147q0 14 12.5 35t42 32t45.5 17q104 63 208 131t104 103q0 14 -31 14q-68 0 -131.5 -76.5t-90 -135t-35.5 -91.5t-9 -59q0 -31 12 -47.5t45 -16.5q41 0 120 37t181 113t145.5 119t61.5 43q12 0 12 -19q0 -31 -18 -45q-182 -182 -311.5 -264t-200.5 -82 q-86 0 -110.5 67.5t-24.5 118.5q0 94 50 187.5t119.5 147.5t124 78t107.5 24q20 -1 45 -7q29 -4 49.5 -26.5t18.5 -48.5q-10 -68 -227.5 -215.5t-293.5 -147.5q-20 0 -20 14zM240 690l6 60q57 8 107 24.5t121 53t118 73.5t100 103l10 -123q-53 -49 -106 -84t-115.5 -58.5 t-120 -36t-120.5 -12.5z" />
<glyph unicode="&#xea;" horiz-adv-x="512" d="M0 147q0 14 12.5 35t42 32t45.5 17q104 63 208 131t104 103q0 14 -31 14q-68 0 -131.5 -76.5t-90 -135t-35.5 -91.5t-9 -59q0 -31 12 -47.5t45 -16.5q41 0 120 37t181 113t145.5 119t61.5 43q12 0 12 -19q0 -31 -18 -45q-182 -182 -311.5 -264t-200.5 -82 q-86 0 -110.5 67.5t-24.5 118.5q0 94 50 187.5t119.5 147.5t124 78t107.5 24q20 -1 45 -7q29 -4 49.5 -26.5t18.5 -48.5q-10 -68 -227.5 -215.5t-293.5 -147.5q-20 0 -20 14zM240 690l6 60q78 55 134 113.5t84 91t60 81.5q8 -78 70 -129q39 -39 88 -47l-33 -123 q-41 16 -67.5 38t-44 53.5t-24.5 52t-7 47.5q-16 -43 -36.5 -73t-77 -86t-152.5 -79z" />
<glyph unicode="&#xeb;" horiz-adv-x="512" d="M0 147q0 14 12.5 35t42 32t45.5 17q104 63 208 131t104 103q0 14 -31 14q-68 0 -131.5 -76.5t-90 -135t-35.5 -91.5t-9 -59q0 -31 12 -47.5t45 -16.5q41 0 120 37t181 113t145.5 119t61.5 43q12 0 12 -19q0 -31 -18 -45q-182 -182 -311.5 -264t-200.5 -82 q-86 0 -110.5 67.5t-24.5 118.5q0 94 50 187.5t119.5 147.5t124 78t107.5 24q20 -1 45 -7q29 -4 49.5 -26.5t18.5 -48.5q-10 -68 -227.5 -215.5t-293.5 -147.5q-20 0 -20 14zM268 784q1 -55 56 -69q16 -4 24 -4q33 0 53.5 24.5t20.5 55.5q0 55 -36 64t-44 9 q-33 0 -53.5 -24.5t-20.5 -55.5zM481 831q0 -23 13.5 -46t56.5 -23q41 0 62.5 24.5t21.5 61.5q0 23 -13.5 46.5t-56.5 23.5q-41 0 -62.5 -25t-21.5 -62z" />
<glyph unicode="&#xec;" horiz-adv-x="325" d="M16 82q0 94 54.5 219t91.5 205q0 37 30.5 67.5t69.5 30.5q12 0 29.5 -5t35 -34.5t17.5 -66.5q0 -57 -32.5 -65.5t-103.5 -111t-82 -156.5t-11 -63q0 -12 10 -12q8 0 120.5 74t145.5 116t53.5 55t28.5 1q8 -8 8 -23q0 -20 -16 -43.5t-97 -101.5t-125 -111.5t-139 -81.5 q-10 -4 -44.5 23t-39 44t-4.5 40zM172 907q29 -51 62.5 -80.5t83 -50t81 -30t70.5 -9.5l4 62q-41 12 -71.5 29.5t-67.5 39t-70 60.5t-63 96z" />
<glyph unicode="&#xed;" horiz-adv-x="325" d="M16 82q0 94 54.5 219t91.5 205q0 37 30.5 67.5t69.5 30.5q12 0 29.5 -5t35 -34.5t17.5 -66.5q0 -57 -32.5 -65.5t-103.5 -111t-82 -156.5t-11 -63q0 -12 10 -12q8 0 120.5 74t145.5 116t53.5 55t28.5 1q8 -8 8 -23q0 -20 -16 -43.5t-97 -101.5t-125 -111.5t-139 -81.5 q-10 -4 -44.5 23t-39 44t-4.5 40zM115 750l4 63q106 12 200.5 59.5t143.5 86t104 104.5l8 -123q-55 -49 -107 -83t-115.5 -58.5t-119 -36.5t-118.5 -12z" />
<glyph unicode="&#xee;" horiz-adv-x="325" d="M16 82q0 94 54.5 219t91.5 205q0 37 30.5 67.5t69.5 30.5q12 0 29.5 -5t35 -34.5t17.5 -66.5q0 -57 -32.5 -65.5t-103.5 -111t-82 -156.5t-11 -63q0 -12 10 -12q8 0 120.5 74t145.5 116t53.5 55t28.5 1q8 -8 8 -23q0 -20 -16 -43.5t-97 -101.5t-125 -111.5t-139 -81.5 q-10 -4 -44.5 23t-39 44t-4.5 40zM133 750l4 63q31 14 55.5 29.5t66.5 59.5t66.5 73t49.5 76q0 -41 17.5 -73t54 -65.5t81.5 -44.5l-30 -118q-76 31 -97.5 69.5t-35 66t-13.5 54.5q-8 -41 -27.5 -68.5t-66.5 -74.5t-125 -47z" />
<glyph unicode="&#xef;" horiz-adv-x="325" d="M16 82q0 94 54.5 219t91.5 205q0 37 30.5 67.5t69.5 30.5q12 0 29.5 -5t35 -34.5t17.5 -66.5q0 -57 -32.5 -65.5t-103.5 -111t-82 -156.5t-11 -63q0 -12 10 -12q8 0 120.5 74t145.5 116t53.5 55t28.5 1q8 -8 8 -23q0 -20 -16 -43.5t-97 -101.5t-125 -111.5t-139 -81.5 q-10 -4 -44.5 23t-39 44t-4.5 40zM16 82q0 94 54.5 219t91.5 205q0 37 30.5 67.5t69.5 30.5q12 0 29.5 -5t35 -34.5t17.5 -66.5q0 -57 -32.5 -65.5t-103.5 -111t-82 -156.5t-11 -63q0 -12 10 -12q8 0 120.5 74t145.5 116t53.5 55t28.5 1q8 -8 8 -23q0 -20 -16 -43.5 t-97 -101.5t-125 -111.5t-139 -81.5q-10 -4 -44.5 23t-39 44t-4.5 40zM143 764q0 -50 47 -64q16 -4 23 -4q31 0 49.5 22.5t18.5 51.5q0 49 -32 58.5t-38 9.5q-31 0 -49.5 -22.5t-18.5 -51.5zM344 821q0 -71 72 -71q41 0 64.5 25.5t23.5 60.5q0 72 -74 71q-39 0 -62.5 -25.5 t-23.5 -60.5z" />
<glyph unicode="&#xf1;" horiz-adv-x="821" d="M86 250q-10 51 66 108q57 39 96 67t74.5 45t60.5 17q39 0 35 -49t10 -49q6 0 25.5 16.5t56.5 50t86 61.5t82 28q35 0 52.5 -28t17.5 -73q0 -12 -4.5 -36.5t-7.5 -62.5t-3 -60q0 -29 4 -56.5t21 -27.5q12 0 48 36.5t81 64.5t69 28q18 0 19 -17q0 -20 -37 -63.5 t-119 -106.5q-43 -33 -98 -101.5t-72 -68.5q-20 0 -30.5 49.5t-10.5 120.5q0 70 5 114t8.5 66.5t3.5 47.5q0 55 -25 55q-29 0 -78 -58.5t-178 -225.5t-151 -167q-20 0 -21 68q-4 23 -6 47q0 23 13.5 48.5t71.5 102t58 113.5q0 16 -14 17q-16 0 -58 -31t-86.5 -70t-52.5 -39 t-12 19zM209 711q0 -16 12 -17q19 1 66 56q14 18 35.5 26t46.5 8q23 0 90 -15t92 -15q51 0 82 32.5t48 69.5t17 57q0 29 -20 29q-25 0 -52.5 -42t-55 -57.5t-54.5 -15.5q-33 0 -97.5 28t-84.5 28q-27 0 -54.5 -31t-49 -74t-21.5 -67z" />
<glyph unicode="&#xf2;" horiz-adv-x="684" d="M54 245q1 -7 5 -7q8 0 26.5 16t44.5 32.5t36 16.5q-2 -6 -2 -12q-14 -20 -30.5 -60.5t-16.5 -103.5q0 -78 42 -128t57 -67.5t38 -17.5q18 0 121.5 36t191.5 126t88 225q0 18 2 33.5t5 30.5q0 35 -22 60.5t-48 25.5q-14 0 -44 -20.5t-30 -70.5q0 -25 10.5 -41t24.5 -18 q-14 -45 -34.5 -95t-59.5 -95t-97.5 -80t-97.5 -35q-25 0 -31 20.5t-6 55.5q0 66 37 141.5t91.5 129.5t103.5 69.5t60 30t58.5 16.5t53.5 26q8 37 -25 66t-74 29q-76 0 -163.5 -41t-251.5 -174q-27 -20 -43.5 -43t-18.5 -54q-2 -16 -1 -23z" />
<glyph unicode="&#xf3;" horiz-adv-x="684" d="M54 245q1 -7 5 -7q8 0 26.5 16t44.5 32.5t36 16.5q-2 -6 -2 -12q-14 -20 -30.5 -60.5t-16.5 -103.5q0 -78 42 -128t57 -67.5t38 -17.5q18 0 121.5 36t191.5 126t88 225q0 18 2 33.5t5 30.5q0 35 -22 60.5t-48 25.5q-14 0 -44 -20.5t-30 -70.5q0 -25 10.5 -41t24.5 -18 q-14 -45 -34.5 -95t-59.5 -95t-97.5 -80t-97.5 -35q-25 0 -31 20.5t-6 55.5q0 66 37 141.5t91.5 129.5t103.5 69.5t60 30t58.5 16.5t53.5 26q8 37 -25 66t-74 29q-76 0 -163.5 -41t-251.5 -174q-27 -20 -43.5 -43t-18.5 -54q-2 -16 -1 -23z" />
<glyph unicode="&#xf4;" horiz-adv-x="684" d="M54 245q1 -7 5 -7q8 0 26.5 16t44.5 32.5t36 16.5q-2 -6 -2 -12q-14 -20 -30.5 -60.5t-16.5 -103.5q0 -78 42 -128t57 -67.5t38 -17.5q18 0 121.5 36t191.5 126t88 225q0 18 2 33.5t5 30.5q0 35 -22 60.5t-48 25.5q-14 0 -44 -20.5t-30 -70.5q0 -25 10.5 -41t24.5 -18 q-14 -45 -34.5 -95t-59.5 -95t-97.5 -80t-97.5 -35q-25 0 -31 20.5t-6 55.5q0 66 37 141.5t91.5 129.5t103.5 69.5t60 30t58.5 16.5t53.5 26q8 37 -25 66t-74 29q-76 0 -163.5 -41t-251.5 -174q-27 -20 -43.5 -43t-18.5 -54q-2 -16 -1 -23zM240 690l6 60q78 55 134 113.5 t84 91t60 81.5q8 -78 70 -129q39 -39 88 -47l-33 -123q-41 16 -67.5 38t-44 53.5t-24.5 52t-7 47.5q-16 -43 -36.5 -73t-77 -86t-152.5 -79z" />
<glyph unicode="&#xf5;" horiz-adv-x="684" d="M54 245q1 -7 5 -7q8 0 26.5 16t44.5 32.5t36 16.5q-2 -6 -2 -12q-14 -20 -30.5 -60.5t-16.5 -103.5q0 -78 42 -128t57 -67.5t38 -17.5q18 0 121.5 36t191.5 126t88 225q0 18 2 33.5t5 30.5q0 35 -22 60.5t-48 25.5q-14 0 -44 -20.5t-30 -70.5q0 -25 10.5 -41t24.5 -18 q-14 -45 -34.5 -95t-59.5 -95t-97.5 -80t-97.5 -35q-25 0 -31 20.5t-6 55.5q0 66 37 141.5t91.5 129.5t103.5 69.5t60 30t58.5 16.5t53.5 26q8 37 -25 66t-74 29q-76 0 -163.5 -41t-251.5 -174q-27 -20 -43.5 -43t-18.5 -54q-2 -16 -1 -23zM209 711q0 -16 12 -17q19 1 66 56 q14 18 35.5 26t46.5 8q23 0 90 -15t92 -15q51 0 82 32.5t48 69.5t17 57q0 29 -20 29q-25 0 -52.5 -42t-55 -57.5t-54.5 -15.5q-33 0 -97.5 28t-84.5 28q-27 0 -54.5 -31t-49 -74t-21.5 -67z" />
<glyph unicode="&#xf6;" horiz-adv-x="684" d="M54 245q1 -7 5 -7q8 0 26.5 16t44.5 32.5t36 16.5q-2 -6 -2 -12q-14 -20 -30.5 -60.5t-16.5 -103.5q0 -78 42 -128t57 -67.5t38 -17.5q18 0 121.5 36t191.5 126t88 225q0 18 2 33.5t5 30.5q0 35 -22 60.5t-48 25.5q-14 0 -44 -20.5t-30 -70.5q0 -25 10.5 -41t24.5 -18 q-14 -45 -34.5 -95t-59.5 -95t-97.5 -80t-97.5 -35q-25 0 -31 20.5t-6 55.5q0 66 37 141.5t91.5 129.5t103.5 69.5t60 30t58.5 16.5t53.5 26q8 37 -25 66t-74 29q-76 0 -163.5 -41t-251.5 -174q-27 -20 -43.5 -43t-18.5 -54q-2 -16 -1 -23zM287 791q0 -50 47 -64 q16 -4 22 -4q31 0 49.5 22.5t18.5 51.5q0 49 -32 58t-38 9q-31 0 -49 -22.5t-18 -50.5zM492 844q0 -23 13 -46.5t56 -23.5q39 0 61.5 24.5t22.5 59.5q0 23 -13.5 46.5t-56.5 23.5q-39 0 -61 -24.5t-22 -59.5z" />
<glyph unicode="&#xf7;" horiz-adv-x="798" d="M289 569q0 16 29 32.5t47 16.5q98 0 142 17.5t75 17.5q82 0 116.5 -9t34.5 -28q0 -23 -48 -48t-71 -21q-59 16 -92 16q-18 0 -48 -13t-64 -13q-121 0 -121 32zM403 387q0 -37 21.5 -62.5t52.5 -25.5q25 0 49.5 23.5t24.5 60.5q0 35 -22.5 61.5t-53.5 26.5q-25 0 -45 -20 q-27 -27 -27 -64zM475 827q0 -39 21.5 -67.5t56.5 -28.5q23 0 45.5 17.5t30.5 37t8 43.5q0 39 -21.5 68t-56.5 29q-22 -1 -47 -19q-20 -16 -28.5 -35.5t-8.5 -44.5z" />
<glyph unicode="&#xf9;" horiz-adv-x="921" d="M102 303q0 16 15.5 38.5t54.5 53.5q55 47 111 97q63 51 96 51q31 0 40 -36t9 -61q0 -47 -14.5 -89t-56.5 -107.5t-42 -110.5q0 -23 17 -22q29 0 117 94t182 195.5t143 101.5q45 0 76 -50t31 -69q0 -6 -33 -54t-42 -79t-24.5 -75t-15.5 -52q6 -2 14 -2q18 8 51 32.5 t146 121.5q27 8 53 16q8 -45 -39 -92q-96 -82 -160.5 -143.5t-105.5 -61.5q-39 0 -65.5 41t-26.5 88q0 20 19.5 70.5t19.5 79.5q0 18 -13 18q-29 0 -124 -93t-149 -145.5t-72.5 -60.5t-39.5 -8q-45 0 -74.5 46t-29.5 103q0 45 34 99.5t34 95.5q0 16 -11 16 q-12 0 -43.5 -33.5t-60.5 -33.5q-20 0 -21 20zM250 881q84 -92 171 -129t140 -49.5t117 -12.5l6 60q-66 10 -109 24t-105 51t-105 76t-86 103z" />
<glyph unicode="&#xfa;" horiz-adv-x="921" d="M102 303q0 16 15.5 38.5t54.5 53.5q55 47 111 97q63 51 96 51q31 0 40 -36t9 -61q0 -47 -14.5 -89t-56.5 -107.5t-42 -110.5q0 -23 17 -22q29 0 117 94t182 195.5t143 101.5q45 0 76 -50t31 -69q0 -6 -33 -54t-42 -79t-24.5 -75t-15.5 -52q6 -2 14 -2q18 8 51 32.5 t146 121.5q27 8 53 16q8 -45 -39 -92q-96 -82 -160.5 -143.5t-105.5 -61.5q-39 0 -65.5 41t-26.5 88q0 20 19.5 70.5t19.5 79.5q0 18 -13 18q-29 0 -124 -93t-149 -145.5t-72.5 -60.5t-39.5 -8q-45 0 -74.5 46t-29.5 103q0 45 34 99.5t34 95.5q0 16 -11 16 q-12 0 -43.5 -33.5t-60.5 -33.5q-20 0 -21 20zM240 690l6 60q57 8 107 24.5t121 53t118 73.5t100 103l10 -123q-53 -49 -106 -84t-115.5 -58.5t-120 -36t-120.5 -12.5z" />
<glyph unicode="&#xfb;" horiz-adv-x="921" d="M102 303q0 16 15.5 38.5t54.5 53.5q55 47 111 97q63 51 96 51q31 0 40 -36t9 -61q0 -47 -14.5 -89t-56.5 -107.5t-42 -110.5q0 -23 17 -22q29 0 117 94t182 195.5t143 101.5q45 0 76 -50t31 -69q0 -6 -33 -54t-42 -79t-24.5 -75t-15.5 -52q6 -2 14 -2q18 8 51 32.5 t146 121.5q27 8 53 16q8 -45 -39 -92q-96 -82 -160.5 -143.5t-105.5 -61.5q-39 0 -65.5 41t-26.5 88q0 20 19.5 70.5t19.5 79.5q0 18 -13 18q-29 0 -124 -93t-149 -145.5t-72.5 -60.5t-39.5 -8q-45 0 -74.5 46t-29.5 103q0 45 34 99.5t34 95.5q0 16 -11 16 q-12 0 -43.5 -33.5t-60.5 -33.5q-20 0 -21 20zM399 668l7 59q43 27 73.5 53.5t64.5 61.5t68.5 74.5t71.5 95.5q0 -41 15.5 -69t53.5 -61.5t87 -47.5l-31 -119q-39 14 -66.5 37.5t-43 52.5t-24.5 53.5t-11 48.5q-16 -47 -37 -77.5t-75 -84t-153 -77.5z" />
<glyph unicode="&#xfc;" horiz-adv-x="921" d="M102 303q0 16 15.5 38.5t54.5 53.5q55 47 111 97q63 51 96 51q31 0 40 -36t9 -61q0 -47 -14.5 -89t-56.5 -107.5t-42 -110.5q0 -23 17 -22q29 0 117 94t182 195.5t143 101.5q45 0 76 -50t31 -69q0 -6 -33 -54t-42 -79t-24.5 -75t-15.5 -52q6 -2 14 -2q18 8 51 32.5 t146 121.5q27 8 53 16q8 -45 -39 -92q-96 -82 -160.5 -143.5t-105.5 -61.5q-39 0 -65.5 41t-26.5 88q0 20 19.5 70.5t19.5 79.5q0 18 -13 18q-29 0 -124 -93t-149 -145.5t-72.5 -60.5t-39.5 -8q-45 0 -74.5 46t-29.5 103q0 45 34 99.5t34 95.5q0 16 -11 16 q-12 0 -43.5 -33.5t-60.5 -33.5q-20 0 -21 20zM430 791q0 -50 47 -64q16 -4 23 -4q29 0 47 22.5t18 51.5q0 49 -31.5 58t-37.5 9q-29 0 -47.5 -22.5t-18.5 -50.5zM633 844q0 -23 13 -46.5t56 -23.5q39 0 61.5 24.5t22.5 59.5q0 23 -13 46.5t-56 23.5q-39 0 -61.5 -24.5 t-22.5 -59.5z" />
<glyph unicode="&#xff;" horiz-adv-x="866" d="M82 -608q0 250 137 375q174 94 348 186q37 80 79 178t65 186q-31 -14 -64 -26t-44 -16.5t-193.5 -114t-227.5 -109.5q-59 0 -59 92q0 25 21.5 77t45.5 106q-10 -11 -18 -21q-31 -45 -61 -45q-20 0 -21 23q0 39 44 76.5t91 79.5t92 87q14 14 43 -3t25 -38 q-8 -41 -66.5 -144t-58.5 -126q0 -16 19 -16q10 0 77.5 22.5t205.5 143t181 145.5t58 25q43 0 43 -97q0 -37 -7.5 -92t-14.5 -76.5t-44 -111.5t-55 -125t-47 -86q10 2 30.5 4t32.5 2q74 0 129.5 -31t55.5 -112q0 -45 -6.5 -64.5t-16.5 -19.5q-6 0 -10 4t-30.5 45t-120 75.5 t-99.5 18.5q-78 -150 -253 -341.5t-226 -191.5q-39 0 -59.5 20.5t-20.5 35.5zM145 -494q0 -45 23 -45q6 0 74.5 41t150.5 133.5t135 237.5l-82 -12q-197 -76 -249 -198t-52 -157zM303 801q0 -35 20.5 -59.5t49.5 -24.5q23 0 45 24.5t22 55.5q0 35 -20.5 59.5t-48.5 24.5 q-25 -1 -45 -21q-23 -25 -23 -59zM600 854q0 -39 19.5 -64.5t54.5 -25.5q23 0 61.5 21.5t38.5 88.5q0 39 -19.5 65t-54.5 26q-23 -1 -41 -11q-59 -33 -59 -100z" />
<glyph unicode="&#x2000;" horiz-adv-x="749" />
<glyph unicode="&#x2001;" horiz-adv-x="1499" />
<glyph unicode="&#x2002;" horiz-adv-x="749" />
<glyph unicode="&#x2003;" horiz-adv-x="1499" />
<glyph unicode="&#x2004;" horiz-adv-x="499" />
<glyph unicode="&#x2005;" horiz-adv-x="374" />
<glyph unicode="&#x2006;" horiz-adv-x="249" />
<glyph unicode="&#x2007;" horiz-adv-x="249" />
<glyph unicode="&#x2008;" horiz-adv-x="187" />
<glyph unicode="&#x2009;" horiz-adv-x="299" />
<glyph unicode="&#x200a;" horiz-adv-x="83" />
<glyph unicode="&#x2010;" horiz-adv-x="798" d="M256 399q0 14 29 33t47 19q92 0 137 18t76 18q84 0 118.5 -9t34.5 -27q0 -23 -51 -49.5t-72 -20.5q-55 16 -86 16q-23 0 -51 -15t-63 -15q-68 0 -93.5 8t-25.5 24z" />
<glyph unicode="&#x2011;" horiz-adv-x="798" d="M256 399q0 14 29 33t47 19q92 0 137 18t76 18q84 0 118.5 -9t34.5 -27q0 -23 -51 -49.5t-72 -20.5q-55 16 -86 16q-23 0 -51 -15t-63 -15q-68 0 -93.5 8t-25.5 24z" />
<glyph unicode="&#x2012;" horiz-adv-x="798" d="M256 399q0 14 29 33t47 19q92 0 137 18t76 18q84 0 118.5 -9t34.5 -27q0 -23 -51 -49.5t-72 -20.5q-55 16 -86 16q-23 0 -51 -15t-63 -15q-68 0 -93.5 8t-25.5 24z" />
<glyph unicode="&#x2013;" horiz-adv-x="706" d="M209 567q0 14 25.5 29.5t41.5 15.5q78 0 185.5 15.5t138.5 15.5q74 0 104.5 -9t30.5 -26q0 -20 -44 -42.5t-62 -18.5q-25 8 -55.5 12t-55.5 4q-43 0 -110.5 -12t-94.5 -12q-55 0 -79.5 8t-24.5 20z" />
<glyph unicode="&#x2014;" horiz-adv-x="1112" d="M236 637q0 16 28.5 34.5t46.5 18.5q104 0 322.5 5t286.5 5q82 0 116.5 -9t34.5 -27q0 -23 -49 -48.5t-72 -19.5q-41 12 -101.5 16t-137.5 4q-84 0 -211 -6t-146 -6q-61 0 -89.5 9.5t-28.5 23.5z" />
<glyph unicode="&#x2018;" horiz-adv-x="237" d="M213 1143q0 31 21.5 63.5t78 101t84.5 68.5q23 0 23 -22q0 -12 -11.5 -31.5t-19.5 -36.5q-10 -12 -20 -12q6 -23 8 -45.5t2 -36.5q0 -43 -17.5 -71.5t-74.5 -28.5q-20 0 -47 9t-27 42z" />
<glyph unicode="&#x2019;" horiz-adv-x="161" d="M414 1079q0 14 14 35q8 18 16 37q9 10 21 10q-6 23 -8 45.5t-2 36.5q0 41 18.5 72t75.5 31q25 0 50.5 -10.5t25.5 -41.5q0 -39 -28 -75.5t-80 -98t-81 -61.5q-23 0 -22 20z" />
<glyph unicode="&#x201c;" horiz-adv-x="454" d="M166 1038q0 51 57.5 124t88 111t61.5 38q23 0 22 -25q0 -16 -11 -37.5t-19.5 -38t-24.5 -16.5q4 -6 9 -35t5 -57q0 -29 -3 -42t-23.5 -44t-83.5 -31q-23 0 -50.5 9.5t-27.5 43.5zM418 1038q0 53 57 125t89 110t63 38q23 0 22 -25q0 -18 -16 -43q-8 -18 -17 -37 q-10 -12 -22 -12q2 -6 7 -37t5 -55q0 -29 -3 -42t-14 -31.5t-38 -31t-55 -12.5q-23 0 -50.5 9.5t-27.5 43.5z" />
<glyph unicode="&#x201d;" horiz-adv-x="339" d="M451 1012q0 18 10 34.5t20.5 40t28.5 23.5q-4 6 -9 33.5t-5 60.5q0 43 15 65.5t41 35t50 12.5q23 0 33 -4t30.5 -12.5t20.5 -45.5q0 -43 -37 -91t-91 -112.5t-85 -64.5q-23 0 -22 25zM705 1012q0 18 16 43q12 25 19.5 40t21.5 15q-4 6 -9 33.5t-5 60.5q0 43 23.5 78 t84.5 35q23 0 33 -4t30.5 -12.5t20.5 -45.5q0 -45 -35 -92t-90 -111.5t-88 -64.5q-23 0 -22 25z" />
<glyph unicode="&#x2022;" horiz-adv-x="954" d="M217 420q0 -80 70 -182q47 -63 135 -64q94 0 188.5 64.5t117 135t29.5 96.5t7 48q0 39 -19.5 82t-65.5 115.5t-110 72.5q-59 0 -131.5 -44t-115.5 -101q-55 -74 -80 -120t-25 -103z" />
<glyph unicode="&#x2026;" horiz-adv-x="1101" d="M186 123q0 45 33 76q16 12 35 12q51 0 74 -47q18 -31 18 -68q0 -41 -22.5 -60.5t-42.5 -19.5q-55 0 -78 47q-16 29 -17 60zM489 123q0 45 33 76q16 12 37 12q49 0 70.5 -39t21.5 -76q0 -39 -23.5 -59.5t-43.5 -20.5q-55 0 -78 47q-16 29 -17 60zM795 123q0 45 30 76 q16 12 35 12q25 0 45.5 -12.5t30.5 -34.5q18 -31 18 -68q0 -39 -23.5 -59.5t-41.5 -20.5q-55 0 -80 47q-14 33 -14 60z" />
<glyph unicode="&#x202f;" horiz-adv-x="299" />
<glyph unicode="&#x205f;" horiz-adv-x="374" />
<glyph unicode="&#x2122;" horiz-adv-x="1372" d="M502 1151q0 12 7 27.5t13 15.5l21 2q76 43 176 65.5t184 22.5l35 4q18 0 18 -39q0 -20 -36 -20q-6 0 -12.5 12t-18.5 12q-14 0 -143.5 -46t-204.5 -46q-6 0 -10.5 -6t-6.5 -14q0 -20 -8 -21q-14 0 -14 31zM516 813q0 14 7 39t9 35q29 74 103 175t125 171q2 6 17.5 4 t17.5 -10q4 -10 -10.5 -23.5t-56.5 -72t-91 -129t-62 -162.5q4 -29 5 -43q0 -14 -9 -21q-14 -6 -34 0q-20 8 -21 37zM795 846q0 -12 12 -17q25 -6 48.5 40t86 109.5t112.5 105.5t64.5 52.5t20.5 10.5q2 -8 4 -17q-6 -23 -32 -61.5t-45 -69t-19 -45.5q0 -14 20 -14 q25 0 59.5 41t88 103.5t82 82t34.5 19.5v-8q-8 -16 -29.5 -52t-64.5 -109t-43 -118q0 -23 15.5 -31t27.5 -14t18 0q18 25 9 37q-14 20 -7 49q66 111 101 177.5t22 92.5q-8 16 -24 17q-31 0 -70 -35t-98 -94q-16 -16 -19 -17q0 8 2 19q8 20 19.5 44.5t11.5 35.5q0 18 -16 28 q-12 6 -24.5 2t-47.5 -28q-20 -18 -103 -103.5t-104 -103.5l142 239q12 10 12 33q0 14 -9.5 25.5t-21.5 11.5q-18 0 -32.5 -12t-14.5 -29q-6 -27 -10 -43t-27 -67q-14 -31 -62 -108t-68.5 -121t-20.5 -58z" />
<glyph unicode="&#x25fc;" horiz-adv-x="614" d="M0 0v614h614v-614h-614z" />
</font>
</defs>
</svg>
